<svg width="600" height="400" viewBox="0 0 600 400" fill="none" xmlns="http://www.w3.org/2000/svg">
  <!-- Arka Plan Dünya Haritası -->
  <path d="M50 200 C150 150 250 250 350 200 C450 150 550 250 580 200" fill="none" stroke="#E0F0F9" stroke-width="80" stroke-linecap="round" opacity="0.3"/>
  
  <!-- Bulut -->
  <ellipse cx="300" cy="120" rx="60" ry="40" fill="white" filter="drop-shadow(0px 5px 15px rgba(0, 0, 0, 0.1))"/>
  <ellipse cx="260" cy="100" rx="40" ry="30" fill="white" filter="drop-shadow(0px 5px 15px rgba(0, 0, 0, 0.1))"/>
  <ellipse cx="340" cy="100" rx="40" ry="30" fill="white" filter="drop-shadow(0px 5px 15px rgba(0, 0, 0, 0.1))"/>
  
  <!-- Bağlantı Çizgileri -->
  <path d="M300 160 L300 180 L170 270" stroke="#D0E8FF" stroke-width="2" stroke-dasharray="4,4"/>
  <path d="M300 160 L300 180 L240 280" stroke="#D0E8FF" stroke-width="2" stroke-dasharray="4,4"/>
  <path d="M300 160 L300 180 L380 240" stroke="#D0E8FF" stroke-width="2" stroke-dasharray="4,4"/>
  <path d="M300 160 L300 180 L240 220" stroke="#D0E8FF" stroke-width="2" stroke-dasharray="4,4"/>
  <path d="M300 160 L300 180 L320 320" stroke="#D0E8FF" stroke-width="2" stroke-dasharray="4,4"/>
  
  <!-- Cihazlar -->
  <!-- Desktop -->
  <rect x="290" y="280" width="60" height="40" rx="3" fill="#FFA500" stroke="#FF8C00" stroke-width="2"/>
  <rect x="280" y="320" width="80" height="5" rx="2" fill="#FF8C00"/>
  <rect x="305" y="300" width="30" height="1" fill="white" opacity="0.7"/>
  
  <!-- Laptop -->
  <rect x="360" y="220" width="40" height="30" rx="2" fill="#FFA500" stroke="#FF8C00" stroke-width="2"/>
  <path d="M355 250 L405 250 L400 260 L360 260 Z" fill="#FF8C00"/>
  <rect x="365" y="230" width="30" height="1" fill="white" opacity="0.7"/>
  
  <!-- Tablet -->
  <rect x="220" y="200" width="40" height="30" rx="2" fill="#3CB371" stroke="#2E8B57" stroke-width="2"/>
  <rect x="230" y="225" width="20" height="1" fill="white" opacity="0.7"/>
  <circle cx="240" cy="205" r="1" fill="white" opacity="0.7"/>
  
  <!-- Smartphone -->
  <rect x="160" y="250" width="20" height="40" rx="2" fill="#DC143C" stroke="#B22222" stroke-width="2"/>
  <rect x="165" y="255" width="10" height="20" fill="white" opacity="0.3"/>
  <circle cx="170" cy="285" r="2" fill="white" opacity="0.7"/>
  
  <!-- Locations -->
  <rect x="200" y="180" width="20" height="20" rx="3" fill="#4682B4" stroke="#4169E1" stroke-width="1"/>
  <circle cx="210" cy="190" r="5" fill="white" opacity="0.5"/>
  
  <rect x="360" y="150" width="20" height="20" rx="3" fill="#32CD32" stroke="#228B22" stroke-width="1"/>
  <circle cx="370" cy="160" r="5" fill="white" opacity="0.5"/>
  
  <rect x="150" y="200" width="20" height="20" rx="3" fill="#FF6347" stroke="#FF4500" stroke-width="1"/>
  <circle cx="160" cy="210" r="5" fill="white" opacity="0.5"/>
</svg> 