<?xml version="1.0" encoding="UTF-8"?>
<svg xmlns="http://www.w3.org/2000/svg" version="1.1" viewBox="0 0 500 500">
  <defs>
    <style>
      .cls-1, .cls-2, .cls-3, .cls-4 {
        opacity: .3;
      }

      .cls-1, .cls-5, .cls-6 {
        stroke-linecap: round;
        stroke-linejoin: round;
        stroke-width: .5px;
      }

      .cls-1, .cls-5, .cls-6, .cls-7 {
        fill: none;
      }

      .cls-1, .cls-6 {
        stroke: #000;
      }

      .cls-8, .cls-9, .cls-10, .cls-4 {
        isolation: isolate;
      }

      .cls-8, .cls-11, .cls-6 {
        opacity: .2;
      }

      .cls-12 {
        fill: #263238;
      }

      .cls-13 {
        fill: #f0f0f0;
      }

      .cls-9, .cls-14 {
        fill: #e6e6e6;
      }

      .cls-15, .cls-10, .cls-16, .cls-3, .cls-17, .cls-4, .cls-18 {
        fill: #fff;
      }

      .cls-19 {
        fill: #e0e0e0;
      }

      .cls-16 {
        opacity: .9;
      }

      .cls-5 {
        stroke: #407bff;
      }

      .cls-20 {
        fill: #ebb373;
      }

      .cls-21 {
        fill: #a24e3f;
      }

      .cls-22 {
        fill: #c15854;
      }

      .cls-23 {
        fill: #b97964;
      }

      .cls-17 {
        opacity: .4;
      }

      .cls-24 {
        fill: #ebebeb;
      }

      .cls-25 {
        display: none;
      }

      .cls-7 {
        stroke: #e0e0e0;
        stroke-miterlimit: 10;
      }

      .cls-26 {
        fill: #f5f5f5;
      }

      .cls-18, .cls-27 {
        opacity: .7;
      }

      .cls-28 {
        fill: #407bff;
      }
    </style>
  </defs>
  <!-- Generator: Adobe Illustrator 28.7.1, SVG Export Plug-In . SVG Version: 1.2.0 Build 142)  -->
  <g>
    <g id="Background_complete">
      <g>
        <g>
          <g>
            <path class="cls-19" d="M443.92,319.26h-180.75c-3.23,0-5.86-2.63-5.86-5.86V50.13c0-3.23,2.63-5.86,5.86-5.86h180.75c3.23,0,5.86,2.63,5.86,5.86v263.27c0,3.23-2.63,5.86-5.86,5.86ZM263.17,44.52c-3.09,0-5.61,2.52-5.61,5.61v263.27c0,3.09,2.52,5.61,5.61,5.61h180.75c3.09,0,5.61-2.52,5.61-5.61V50.13c0-3.09-2.52-5.61-5.61-5.61h-180.75Z"/>
            <path class="cls-19" d="M235.49,319.26H54.75c-3.23,0-5.86-2.63-5.86-5.86V50.13c0-3.23,2.63-5.86,5.86-5.86h180.75c3.23,0,5.86,2.63,5.86,5.86v263.27c0,3.23-2.63,5.86-5.86,5.86ZM54.75,44.52c-3.09,0-5.61,2.52-5.61,5.61v263.27c0,3.09,2.52,5.61,5.61,5.61h180.75c3.09,0,5.61-2.52,5.61-5.61V50.13c0-3.09-2.52-5.61-5.61-5.61H54.75Z"/>
          </g>
          <rect class="cls-19" x="0" y="380.33" width="500" height=".25"/>
        </g>
        <rect class="cls-19" x="51.67" y="394.6" width="16.06" height=".25"/>
        <rect class="cls-19" x="170.35" y="391.89" width="53.53" height=".25"/>
        <rect class="cls-19" x="68.73" y="403.89" width="36.25" height=".25"/>
        <rect class="cls-19" x="378.35" y="391.76" width="43.19" height=".25"/>
        <rect class="cls-19" x="430.45" y="391.76" width="6.33" height=".25"/>
        <rect class="cls-19" x="316.21" y="397.99" width="53.89" height=".25"/>
      </g>
      <g>
        <g>
          <rect class="cls-14" x="77.31" y="57.89" width="64.78" height="122.12"/>
          <rect class="cls-13" x="62.82" y="57.89" width="76.09" height="122.12"/>
          <rect class="cls-15" x="74.38" y="68.74" width="52.92" height="100.42"/>
        </g>
        <path class="cls-13" d="M98.44,91.99c-2.66,3.39-4.76,7.14-6.16,11.22-1.41,4.11-2.32,8.72-1.63,13.05.59,3.69,2.78,7.27,6.33,8.75,3.81,1.59,7.81.07,10.87-2.36,2.84-2.26,6.5-6.21,5.55-10.17-.99-4.13-5.92-4.95-9.33-3.56-7.81,3.18-11.52,12.16-12.12,20.02-.63,8.31.72,22.01,10.99,23.85,1.89.34,2.7-2.55.8-2.89-7.32-1.32-8.59-10.26-8.85-16.34-.29-6.77,1.1-14.02,6.09-18.95,1.95-1.92,5.45-4.56,8.27-2.92,3.26,1.9-.47,6-2.16,7.63-2.15,2.08-5.22,4.02-8.33,3.16-2.93-.81-4.64-3.76-5.15-6.58-.7-3.85.26-8.05,1.49-11.7,1.23-3.64,3.09-7.08,5.46-10.1,1.18-1.5-.93-3.64-2.12-2.12h0Z"/>
      </g>
      <g>
        <rect class="cls-14" x="378.49" y="68.78" width="55.27" height="70.92"/>
        <rect class="cls-13" x="366.13" y="68.78" width="64.93" height="70.92"/>
        <rect class="cls-15" x="372.11" y="75.08" width="52.67" height="58.32"/>
        <rect class="cls-13" x="389.42" y="93.71" width="19.01" height="21.05"/>
      </g>
      <g>
        <rect class="cls-14" x="378.49" y="167.68" width="55.27" height="70.92"/>
        <rect class="cls-13" x="366.13" y="167.68" width="64.93" height="70.92"/>
        <rect class="cls-15" x="372.11" y="173.98" width="52.67" height="58.32"/>
        <rect class="cls-13" x="389.42" y="192.61" width="19.01" height="21.05"/>
      </g>
      <g>
        <rect class="cls-24" x="48.88" y="305.49" width="132.32" height="62.15"/>
        <polygon class="cls-24" points="59.7 364.69 48.88 464.13 55.85 464.13 76.67 364.85 59.7 364.69"/>
        <polygon class="cls-24" points="173.43 364.69 184.25 464.13 177.28 464.13 156.46 364.85 173.43 364.69"/>
        <g>
          <polygon class="cls-19" points="82.3 288.24 88.11 305.49 77.37 305.49 82.3 288.24"/>
          <polygon class="cls-14" points="62.04 305.49 82.3 305.49 88.11 277.31 67.87 277.31 62.04 305.49"/>
          <polygon class="cls-10" points="80.18 302.79 84.88 280.01 69.98 280.01 65.28 302.79 80.18 302.79"/>
        </g>
        <g>
          <path class="cls-19" d="M119.13,287c-2.14-5.19-1.95-11.04.53-16.07,4.24-7.9,5.48-9.85,2.63-11.49-2.85-1.63-3.93,6.38-3.93,6.38-1.35-3.62-1.49-7.57-.4-11.28,1.87-5.77,3.06-15.18.47-16.18-2.58-1-.47,11.73-2.63,16.07-1.13-3.05-1.87-6.24-2.19-9.49-.29-4.64.18-12.02-1.84-13.91-2.03-1.9-3.32-.61-1.34,9.62,1.2,6.08,1.86,12.25,1.98,18.44,0,0-4.4-13.41-7.35-13.81-2.95-.4-2.95,3.95-.42,7.72s7.4,10.54,8.22,13.99c0,0-4.85-10.09-9.17-6.98-4.32,3.11,3.77,9.17,7.38,11.38,3.61,2.21,6.14,16.02,6.14,16.02l1.92-.42Z"/>
          <path class="cls-24" d="M116.21,290.19c2.07-5.2,1.81-11.05-.71-16.05-4.35-7.9-5.59-9.78-2.9-11.44,2.69-1.66,4.01,6.32,4.01,6.32,1.3-3.64,1.39-7.6.26-11.3-1.95-5.74-3.24-15.12-.69-16.15,2.56-1.03.63,11.7,2.9,16.02,1.1-3.07,1.8-6.26,2.08-9.51.24-4.64-.32-12.02,1.69-13.94,2-1.92,3.32-.66,1.45,9.62-1.12,6.09-1.71,12.26-1.77,18.44,0,0,4.24-13.46,7.19-13.91,2.95-.45,3,3.93.5,7.72-2.5,3.79-7.27,10.54-7.9,14.12,0,0,4.69-10.17,9.06-7.14,4.37,3.03-3.66,9.25-7.25,11.49-3.58,2.24-5.95,16.13-5.95,16.13l-1.98-.42Z"/>
          <polygon class="cls-19" points="132.86 284.4 103.03 284.4 105.46 305.74 130.46 305.74 132.86 284.4"/>
        </g>
        <path class="cls-19" d="M171.46,300.93v4.14h.67v.67h-30.94c-1.51,0-2.74-1.23-2.74-2.74s1.23-2.74,2.74-2.74h30.94v.67h-.67Z"/>
        <path class="cls-4" d="M171.46,300.93v4.14h.67v.67h-15.62c-1.51,0-2.74-1.23-2.74-2.74s1.23-2.74,2.74-2.74h15.62v.67h-.67Z"/>
        <path class="cls-10" d="M171.46,300.93v4.14h-14.95c-1.15.02-2.1-.89-2.12-2.04,0,0,0-.02,0-.03,0-1.14.91-2.06,2.04-2.07h15.03Z"/>
        <path class="cls-19" d="M174.78,295.46v4.14h.67v.67h-30.94c-1.51,0-2.74-1.23-2.74-2.74s1.23-2.74,2.74-2.74h30.94v.67h-.67Z"/>
        <path class="cls-9" d="M174.78,295.46v4.14h.67v.67h-15.62c-1.51,0-2.74-1.23-2.74-2.74s1.23-2.74,2.74-2.74h15.62v.67h-.67Z"/>
        <path class="cls-10" d="M174.78,295.46v4.14h-14.95c-1.14,0-2.06-.93-2.07-2.07,0-1.14.91-2.06,2.04-2.07,0,0,.02,0,.03,0h14.95Z"/>
        <path class="cls-19" d="M170.6,289.98v4.14h.67v.67h-30.94c-1.51,0-2.74-1.23-2.74-2.74s1.23-2.74,2.74-2.74h30.94v.67h-.67Z"/>
        <path class="cls-9" d="M170.6,289.98v4.14h.67v.67h-15.56c-1.51,0-2.74-1.23-2.74-2.74s1.23-2.74,2.74-2.74h15.62v.67h-.73Z"/>
        <path class="cls-10" d="M170.6,289.98v4.14h-14.89c-1.15.03-2.11-.88-2.14-2.03,0,0,0-.02,0-.03-.02-1.14.89-2.07,2.03-2.08.04,0,.07,0,.11,0h14.89Z"/>
        <rect class="cls-7" x="56.61" y="313.66" width="117.4" height="31.8"/>
        <path class="cls-19" d="M121.36,329.56c0,1.88-1.53,3.41-3.41,3.41s-3.41-1.53-3.41-3.41,1.53-3.41,3.41-3.41,3.41,1.53,3.41,3.41Z"/>
      </g>
    </g>
    <g id="Background_simple" class="cls-25">
      <g>
        <path class="cls-28" d="M180.65,102.32c-22.97,3.03-45.12,9.49-64.76,19.61-23.15,11.93-46.81,30.53-39.82,54.84,12.9,44.9,74.78,45.71,62.42,75.9-14,34.19-4.61,74.3,58.19,85.45,119.28,21.18,263.47-102.77,222.97-170.88-25.21-42.4-117.04-81.03-239-64.93Z"/>
        <path class="cls-16" d="M180.65,102.32c-22.97,3.03-45.12,9.49-64.76,19.61-23.15,11.93-46.81,30.53-39.82,54.84,12.9,44.9,74.78,45.71,62.42,75.9-14,34.19-4.61,74.3,58.19,85.45,119.28,21.18,263.47-102.77,222.97-170.88-25.21-42.4-117.04-81.03-239-64.93Z"/>
      </g>
    </g>
    <g id="Shadow">
      <path class="cls-26" d="M457.3,464.13c0,3.36-92.81,6.09-207.3,6.09s-207.3-2.72-207.3-6.09,92.81-6.09,207.3-6.09,207.3,2.72,207.3,6.09Z"/>
    </g>
    <g id="Question_Mark">
      <g>
        <g>
          <path class="cls-28" d="M139.04,420.1c-7.22,0-13.53-2.44-18.92-7.32-5.39-4.88-8.08-11.7-8.08-20.47,0-7.78,2.61-14.33,7.82-19.64,5.21-5.31,11.61-7.97,19.18-7.97s13.74,2.66,18.83,7.97c5.09,5.31,7.64,11.86,7.64,19.64,0,8.65-2.66,15.44-7.99,20.38-5.33,4.94-11.49,7.41-18.47,7.41Z"/>
          <path class="cls-28" d="M55.85,224.18c0-11.43,3.52-23.01,10.55-34.74,7.04-11.73,17.3-21.44,30.79-29.14,13.49-7.7,29.24-11.55,47.23-11.55,16.72,0,31.48,3.22,44.29,9.65,12.8,6.44,22.69,15.19,29.67,26.26,6.98,11.07,10.47,23.1,10.47,36.09,0,10.23-1.99,19.19-5.97,26.89-3.98,7.7-8.71,14.35-14.19,19.94-5.48,5.59-15.31,15.01-29.5,28.24-3.92,3.73-7.06,7.01-9.43,9.83-2.36,2.83-4.12,5.41-5.28,7.76s-2.05,4.69-2.68,7.04c-.63,2.35-1.59,6.47-2.85,12.36-2.19,12.51-9.05,18.77-20.59,18.77-6,0-11.04-2.05-15.14-6.14-4.09-4.09-6.14-10.17-6.14-18.23,0-10.11,1.5-18.86,4.5-26.26,3-7.4,6.98-13.9,11.94-19.49,4.96-5.59,11.65-12.24,20.07-19.94,7.38-6.74,12.72-11.82,16-15.25s6.05-7.25,8.3-11.46c2.25-4.21,3.37-8.78,3.37-13.71,0-9.62-3.43-17.74-10.29-24.36-6.86-6.61-15.71-9.93-26.55-9.93-12.69,0-22.03,3.34-28.03,10.02-6,6.68-11.07,16.51-15.22,29.5-3.92,13.6-11.36,20.39-22.32,20.39-6.46,0-11.91-2.37-16.35-7.13-4.44-4.75-6.66-9.89-6.66-15.43Z"/>
        </g>
        <g class="cls-2">
          <path d="M139.04,420.1c-7.22,0-13.53-2.44-18.92-7.32-5.39-4.88-8.08-11.7-8.08-20.47,0-7.78,2.61-14.33,7.82-19.64,5.21-5.31,11.61-7.97,19.18-7.97s13.74,2.66,18.83,7.97c5.09,5.31,7.64,11.86,7.64,19.64,0,8.65-2.66,15.44-7.99,20.38-5.33,4.94-11.49,7.41-18.47,7.41Z"/>
          <path d="M55.85,224.18c0-11.43,3.52-23.01,10.55-34.74,7.04-11.73,17.3-21.44,30.79-29.14,13.49-7.7,29.24-11.55,47.23-11.55,16.72,0,31.48,3.22,44.29,9.65,12.8,6.44,22.69,15.19,29.67,26.26,6.98,11.07,10.47,23.1,10.47,36.09,0,10.23-1.99,19.19-5.97,26.89-3.98,7.7-8.71,14.35-14.19,19.94-5.48,5.59-15.31,15.01-29.5,28.24-3.92,3.73-7.06,7.01-9.43,9.83-2.36,2.83-4.12,5.41-5.28,7.76s-2.05,4.69-2.68,7.04c-.63,2.35-1.59,6.47-2.85,12.36-2.19,12.51-9.05,18.77-20.59,18.77-6,0-11.04-2.05-15.14-6.14-4.09-4.09-6.14-10.17-6.14-18.23,0-10.11,1.5-18.86,4.5-26.26,3-7.4,6.98-13.9,11.94-19.49,4.96-5.59,11.65-12.24,20.07-19.94,7.38-6.74,12.72-11.82,16-15.25s6.05-7.25,8.3-11.46c2.25-4.21,3.37-8.78,3.37-13.71,0-9.62-3.43-17.74-10.29-24.36-6.86-6.61-15.71-9.93-26.55-9.93-12.69,0-22.03,3.34-28.03,10.02-6,6.68-11.07,16.51-15.22,29.5-3.92,13.6-11.36,20.39-22.32,20.39-6.46,0-11.91-2.37-16.35-7.13-4.44-4.75-6.66-9.89-6.66-15.43Z"/>
        </g>
        <g>
          <path class="cls-28" d="M139.04,412.82c-7.22,0-13.53-2.44-18.92-7.32-5.39-4.88-8.08-11.7-8.08-20.47,0-7.78,2.61-14.33,7.82-19.64,5.21-5.31,11.61-7.97,19.18-7.97s13.74,2.66,18.83,7.97c5.09,5.31,7.64,11.86,7.64,19.64,0,8.65-2.66,15.44-7.99,20.38-5.33,4.94-11.49,7.41-18.47,7.41Z"/>
          <path class="cls-28" d="M55.85,216.9c0-11.43,3.52-23.01,10.55-34.74,7.04-11.73,17.3-21.44,30.79-29.14,13.49-7.7,29.24-11.55,47.23-11.55,16.72,0,31.48,3.22,44.29,9.65,12.8,6.44,22.69,15.19,29.67,26.26,6.98,11.07,10.47,23.1,10.47,36.09,0,10.23-1.99,19.19-5.97,26.89-3.98,7.7-8.71,14.35-14.19,19.94-5.48,5.59-15.31,15.01-29.5,28.24-3.92,3.73-7.06,7.01-9.43,9.83-2.36,2.83-4.12,5.41-5.28,7.76s-2.05,4.69-2.68,7.04c-.63,2.35-1.59,6.47-2.85,12.36-2.19,12.51-9.05,18.77-20.59,18.77-6,0-11.04-2.05-15.14-6.14-4.09-4.09-6.14-10.17-6.14-18.23,0-10.11,1.5-18.86,4.5-26.26s6.98-13.89,11.94-19.49c4.96-5.59,11.65-12.24,20.07-19.94,7.38-6.74,12.72-11.82,16-15.25,3.29-3.43,6.05-7.25,8.3-11.46,2.25-4.21,3.37-8.78,3.37-13.71,0-9.62-3.43-17.74-10.29-24.36-6.86-6.61-15.71-9.93-26.55-9.93-12.69,0-22.03,3.34-28.03,10.02-6,6.68-11.07,16.51-15.22,29.5-3.92,13.6-11.36,20.39-22.32,20.39-6.46,0-11.91-2.37-16.35-7.13-4.44-4.75-6.66-9.89-6.66-15.43Z"/>
        </g>
      </g>
    </g>
    <g id="Speech_Bubble_2">
      <g>
        <g>
          <path class="cls-28" d="M383.05,85.79c-10.87-8.02-26.2-5.71-34.22,5.16-6.19,8.4-6.21,19.43-.9,27.72l-1.98,7.08,7.72-.84c.11.08.2.18.31.26,10.87,8.02,26.19,5.71,34.22-5.16,8.02-10.87,5.71-26.2-5.16-34.22Z"/>
          <path class="cls-18" d="M383.05,85.79c-10.87-8.02-26.2-5.71-34.22,5.16-6.19,8.4-6.21,19.43-.9,27.72l-1.98,7.08,7.72-.84c.11.08.2.18.31.26,10.87,8.02,26.19,5.71,34.22-5.16,8.02-10.87,5.71-26.2-5.16-34.22Z"/>
          <path class="cls-5" d="M385.68,84.2c6.58,4.48,10.63,12.43,10.4,20.38"/>
          <path class="cls-5" d="M395.84,108.23c.05,1.21-.15,2.44-.58,3.57"/>
        </g>
        <path class="cls-28" d="M366.93,106.68c.41-.7,1.01-1.47,1.8-2.32.58-.62,1-1.14,1.27-1.56.27-.42.41-.9.41-1.44,0-.76-.26-1.36-.78-1.81-.52-.44-1.21-.66-2.06-.66s-1.56.2-2.2.6c-.64.4-1.18.96-1.62,1.68l-3.18-2.19c.74-1.32,1.73-2.34,2.98-3.06,1.25-.72,2.74-1.08,4.46-1.08,2.02,0,3.63.51,4.85,1.51,1.22,1.01,1.83,2.41,1.83,4.2,0,.84-.12,1.59-.35,2.22-.24.64-.53,1.18-.87,1.62-.34.44-.78.95-1.33,1.53-.65.68-1.12,1.25-1.42,1.71-.3.46-.45,1.02-.45,1.68h-3.97c0-1.07.21-1.96.62-2.66ZM366.51,116.04c-.48-.49-.72-1.08-.72-1.78s.24-1.29.71-1.76c.47-.47,1.08-.71,1.81-.71s1.34.24,1.81.71c.47.47.71,1.06.71,1.76s-.24,1.3-.72,1.78-1.08.73-1.8.73-1.32-.24-1.8-.73Z"/>
      </g>
    </g>
    <g id="Speech_Bubble_1">
      <g>
        <g>
          <path class="cls-28" d="M153.01,81.55c-7.15,11.47-3.64,26.56,7.83,33.71,8.86,5.52,19.85,4.66,27.7-1.28l7.21,1.42-1.44-7.63c.07-.11.16-.22.23-.33,7.15-11.47,3.64-26.56-7.83-33.71-11.47-7.15-26.56-3.64-33.71,7.83Z"/>
          <path class="cls-18" d="M153.01,81.55c-7.15,11.47-3.64,26.56,7.83,33.71,8.86,5.52,19.85,4.66,27.7-1.28l7.21,1.42-1.44-7.63c.07-.11.16-.22.23-.33,7.15-11.47,3.64-26.56-7.83-33.71-11.47-7.15-26.56-3.64-33.71,7.83Z"/>
          <path class="cls-5" d="M151.23,79.05c3.95-6.91,11.56-11.58,19.5-11.97"/>
          <path class="cls-5" d="M174.38,67.03c1.2-.15,2.44-.05,3.6.3"/>
        </g>
        <path class="cls-28" d="M173.07,95.35c.41-.7,1.01-1.47,1.8-2.32.58-.62,1-1.14,1.27-1.56.27-.42.41-.9.41-1.44,0-.76-.26-1.36-.78-1.81-.52-.44-1.21-.66-2.06-.66s-1.56.2-2.2.6c-.64.4-1.18.96-1.62,1.68l-3.18-2.19c.74-1.32,1.73-2.34,2.98-3.06,1.25-.72,2.74-1.08,4.46-1.08,2.02,0,3.63.51,4.85,1.51,1.22,1.01,1.83,2.41,1.83,4.2,0,.84-.12,1.59-.35,2.22-.24.64-.53,1.18-.87,1.62-.34.44-.78.95-1.33,1.53-.65.68-1.12,1.25-1.42,1.71-.3.46-.45,1.02-.45,1.68h-3.97c0-1.07.21-1.96.62-2.66ZM172.65,104.71c-.48-.49-.72-1.08-.72-1.78s.24-1.29.71-1.76c.47-.47,1.08-.71,1.81-.71s1.34.24,1.81.71c.47.47.71,1.06.71,1.76s-.24,1.3-.72,1.78c-.48.49-1.08.73-1.8.73s-1.32-.24-1.8-.73Z"/>
      </g>
    </g>
    <g id="Plant">
      <g>
        <g>
          <g>
            <path class="cls-12" d="M401.13,423.74c-.02-.56-1.89-55.84-10.88-64.58-8.75-8.5-18.78-.32-19.21.04l-.9-1.08c.11-.1,11.44-9.34,21.09.04,9.4,9.14,11.23,63.25,11.31,65.55l-1.41.04Z"/>
            <path class="cls-12" d="M401.91,434.6c-.06-.66-6.15-66.37,17.85-93.9l1.06.92c-23.6,27.08-17.57,92.19-17.51,92.84l-1.4.14Z"/>
            <path class="cls-12" d="M401.02,427.65l-1.4-.09c.05-.74,4.7-74.7-12.9-90.89l.95-1.04c18.09,16.64,13.56,88.95,13.36,92.02Z"/>
            <path class="cls-12" d="M403.31,427.61h-1.41c.02-2.05.58-49.96,14.19-57.76,3.03-1.74,5.99-2.02,8.81-.86,8.23,3.4,12.31,18.05,12.48,18.67l-1.36.37c-.04-.15-4.07-14.6-11.66-17.74-2.39-.99-4.94-.73-7.57.78-12.92,7.4-13.48,56.05-13.48,56.54Z"/>
            <path class="cls-12" d="M398.01,427.64l-1.4-.08c.02-.38,2.05-37.86-8.06-51.07-2.45-3.2-5.11-4.73-7.92-4.53-6.63.46-12.19,10.16-12.24,10.26l-1.23-.69c.24-.43,5.98-10.45,13.37-10.97,3.3-.23,6.38,1.48,9.14,5.08,10.43,13.62,8.44,50.45,8.35,52.01Z"/>
            <path class="cls-12" d="M400.23,432.74c-.28-3.64-6.61-89.23,4.54-104.31l1.13.84c-10.84,14.67-4.33,102.48-4.27,103.37l-1.4.11Z"/>
          </g>
          <path class="cls-28" d="M429.95,373.71s-7.12,2.63-4.7,8.29c6.81,15.95,23.03,17.64,23.03,17.64,0,0,7.61-12.05,1.37-21.42-8.6-12.91-19.53-8.69-19.71-4.52Z"/>
          <path class="cls-28" d="M398.85,366.58s7.12-.3,7.53,5.84c.4,6.14-15.43,23.13-15.43,23.13,0,0-11.3-4.09-8.87-19.41,2.43-15.32,15.01-13.34,16.78-9.56Z"/>
          <path class="cls-28" d="M402.3,330.8s-2.99-.37-4.12-3.06c-3.36-8.03,8.18-16.69,23.6-12.12,0,0,.41,13.57-7.89,18.92-8.3,5.35-11.59-3.75-11.59-3.75Z"/>
          <path class="cls-28" d="M375.88,372.89s2.48-3.4-1.27-3.74c-3.75-.33-19.99,6.94-15.72,23.6,0,0,20.89-6.81,21.61-13.79.72-6.97-4.62-6.08-4.62-6.08Z"/>
          <path class="cls-28" d="M420.41,336.76s.94-3.09,4.48-4.38c3.54-1.29,16.68-.48,16.86,16.71,0,0-20.22,3.36-22.72-3.19-2.5-6.55,1.38-9.14,1.38-9.14Z"/>
          <path class="cls-28" d="M409.49,351.05s1.36-2.36,3.96-1.1c2.6,1.26,10.25,9.14,2.95,18.65,0,0-13.57-8.16-12.46-13.88,1.02-5.28,5.55-3.67,5.55-3.67Z"/>
          <path class="cls-28" d="M376.25,355.19s1.96-2.57-.91-2.89c-2.87-.32-15.73,3.11-12.74,15.95,0,0,15.67-1.18,16.34-6.51.67-5.33-2.69-6.56-2.69-6.56Z"/>
          <polygon class="cls-12" points="421.05 461.95 382.76 461.95 378.62 422.33 425.18 422.33 421.05 461.95"/>
          <rect class="cls-12" x="372.18" y="416.9" width="59.44" height="10.86"/>
        </g>
        <path class="cls-1" d="M389.55,389.89c-1.17-8.35,3.05-17.65,9.3-23.31"/>
        <path class="cls-1" d="M409.49,351.52c3.24,3.22,5.49,7.42,6.39,11.89"/>
        <path class="cls-1" d="M429.95,373.71c6.46,2.87,12.54,8.94,15.64,15.3"/>
        <path class="cls-1" d="M420.41,336.76c3.35-.96,6.37.07,9.62,1.31,3.25,1.24,6.08,3.56,7.94,6.5"/>
        <path class="cls-28" d="M392.05,339.66s4.74.57,5.02-2.34c.28-2.91-15.68-14.21-28.77-4.86,0,0,4.03,12.96,13.62,15.32,9.59,2.36,10.13-8.12,10.13-8.12Z"/>
        <path class="cls-1" d="M391.9,339.89c-4.99-6.7-17.23-8.88-21.4-7.37"/>
        <path class="cls-1" d="M376.4,355.43c-4.07,1.51-8.42,4.12-10.68,7.83"/>
        <path class="cls-1" d="M361.12,386.43c3.18-6.1,8.53-11.05,14.86-13.74"/>
        <path class="cls-1" d="M402.93,330.48c2.54-5.42,7.42-9.7,13.12-11.51"/>
        <polygon class="cls-2" points="379.19 427.75 379.93 434.87 423.87 434.87 424.62 427.75 379.19 427.75"/>
      </g>
    </g>
    <g id="Character_1">
      <g>
        <g>
          <polygon class="cls-12" points="251.36 424.45 255.26 453.05 264.58 453.52 267.6 425.95 251.36 424.45"/>
          <path class="cls-12" d="M272.52,466.33h-20.85s-.45-.88.06-3.21c.08-.36.18-.76.32-1.2,0-.02.01-.04.02-.06.19-.64.42-1.44.66-2.3.95-3.49,2.08-8.05,2.08-8.05,0,0,3.47-7.43,7.53-5.57,3.56,1.63,2.72,6.28,2.72,6.28,0,0,.35,2.73,3.05,5.14,1.67,1.49,3.33,2.64,4.13,4.49.15.35.27.71.35,1.11,0,.05.02.1.03.15.17.89.16,1.94-.08,3.21Z"/>
          <path class="cls-3" d="M251.73,463.12c-.52,2.33-.06,3.21-.06,3.21h20.85c.24-1.27.25-2.31.08-3.21h-20.87Z"/>
          <path class="cls-28" d="M264.21,453.39c-1.17-.91-2.71-.8-3.77.23-.28.28-.72-.16-.43-.44,1.32-1.28,3.2-1.36,4.64-.23.31.24-.13.68-.44.44h0Z"/>
          <path class="cls-28" d="M264.8,455.34c-1.17-.91-2.71-.8-3.77.23-.28.28-.72-.16-.44-.43,1.32-1.28,3.2-1.36,4.64-.23.31.24-.13.68-.44.44h0Z"/>
          <path class="cls-28" d="M265.39,457.13c-1.17-.91-2.71-.8-3.77.23-.28.28-.72-.16-.43-.44,1.32-1.28,3.2-1.36,4.64-.23.31.24-.13.68-.44.44h0Z"/>
        </g>
        <g>
          <polygon class="cls-12" points="212.23 422.66 208.33 451.26 199.01 451.73 195.99 424.16 212.23 422.66"/>
          <path class="cls-12" d="M191.07,464.54h20.85s.45-.88-.06-3.21c-.08-.36-.18-.76-.32-1.2,0-.02-.01-.04-.02-.07-.19-.64-.42-1.44-.66-2.3-.95-3.49-2.08-8.05-2.08-8.05,0,0-3.47-7.43-7.53-5.57-3.56,1.63-2.72,6.28-2.72,6.28,0,0-.35,2.73-3.05,5.14-1.67,1.49-3.33,2.64-4.13,4.49-.15.35-.27.71-.35,1.11,0,.05-.02.1-.03.15-.17.89-.16,1.94.08,3.21Z"/>
          <path class="cls-3" d="M211.86,461.33c.52,2.33.06,3.21.06,3.21h-20.85c-.24-1.27-.25-2.31-.08-3.21h20.87Z"/>
          <path class="cls-28" d="M199.38,451.6c1.17-.91,2.71-.8,3.77.23.28.28.72-.16.44-.44-1.32-1.28-3.2-1.36-4.64-.23-.31.24.13.68.44.44h0Z"/>
          <path class="cls-28" d="M198.79,453.55c1.17-.91,2.71-.8,3.77.23.28.28.72-.16.44-.44-1.32-1.28-3.2-1.36-4.64-.23-.31.24.13.68.44.44h0Z"/>
          <path class="cls-28" d="M198.2,455.34c1.17-.91,2.71-.8,3.77.23.28.28.72-.16.43-.44-1.32-1.28-3.2-1.36-4.64-.23-.31.24.13.68.43.44h0Z"/>
        </g>
        <g>
          <path class="cls-12" d="M271.78,236.68l-43.36,2.58-26.53-4.58s-1.8,30.29-4.07,102.28c-.49,15.7-4.64,109.01-4.64,109.01l23.32,2.38s11.58-96.78,13.35-105.23c1.06-5.08,5.04-43.25,8.2-61.5,1.53,15.22,2.79,51.94,3.95,61.82,0,0,5.79,79.42,6.61,101.95l21.74-1.08c2.68-30.93,3.59-143.6,3.59-143.6h0c1.5-23.6-2.15-64.03-2.15-64.03Z"/>
          <path class="cls-17" d="M271.78,236.68l-43.36,2.58-26.53-4.58s-1.8,30.29-4.07,102.28c-.49,15.7-4.64,109.01-4.64,109.01l23.32,2.38s11.58-96.78,13.35-105.23c1.06-5.08,5.04-43.25,8.2-61.5,1.53,15.22,2.79,51.94,3.95,61.82,0,0,5.79,79.42,6.61,101.95l21.74-1.08c2.68-30.93,3.59-143.6,3.59-143.6h0c1.5-23.6-2.15-64.03-2.15-64.03Z"/>
        </g>
        <g>
          <g>
            <path class="cls-28" d="M219.24,134.74c4.03-.25,14.38-2.37,29.26-.79,7.74.82,14.07.64,22.01,4.29l3.93,95.36c.06,7.88-1.21,8.98-1.21,8.98,0,0,.23,4.47.24,4.61-26.15,10.11-56.26,9.45-72.92-.93.39.07,0-3.23,0-3.23,0,0-2.51-2.54-1.65-10.64,2.87-27.02,9.15-70.57,13.61-94.88.12-.6,6.11-2.74,6.72-2.78Z"/>
            <path class="cls-2" d="M219.24,134.74c4.03-.25,14.38-2.37,29.26-.79,7.74.82,14.07.64,22.01,4.29l3.93,95.36c.06,7.88-1.21,8.98-1.21,8.98,0,0,.23,4.47.24,4.61-26.15,10.11-56.26,9.45-72.92-.93.39.07,0-3.23,0-3.23,0,0-2.51-2.54-1.65-10.64,2.87-27.02,9.15-70.57,13.61-94.88.12-.6,6.11-2.74,6.72-2.78Z"/>
          </g>
          <path class="cls-2" d="M267.66,143.46c-1.03,0-5.23,9.74-7.91,21.55-2.68,11.81-9.59,34.03-9.59,34.03l-41.2,6.5-2.37,19.64s54.98,5.04,61.38-1.85c6.4-6.89,4.65-8.21,6.97-20.46,2.07-10.92,3.17-38.34,2.84-45.62-.46-10.39-8.7-13.76-10.13-13.79Z"/>
        </g>
        <g>
          <path class="cls-20" d="M190.48,205.54s-5.29,8-1.76,10.03c3.52,2.03,16.73,5.56,16.73,5.56v-14.97l-14.97-.61Z"/>
          <g>
            <path class="cls-28" d="M270.17,138.09c-1.03,0-6.74,10.6-9.42,22.41s-8.25,39.95-8.25,39.95l-47.04,5.71v16.93s56.73,3.94,63.13-2.95c6.4-6.89,6.55-10.39,8.87-22.63,2.07-10.92,3.17-38.34,2.84-45.62-.46-10.39-8.7-13.76-10.13-13.79Z"/>
            <path class="cls-2" d="M270.17,138.09c-1.03,0-6.74,10.6-9.42,22.41s-8.25,39.95-8.25,39.95l-47.04,5.71v16.93s56.73,3.94,63.13-2.95c6.4-6.89,6.55-10.39,8.87-22.63,2.07-10.92,3.17-38.34,2.84-45.62-.46-10.39-8.7-13.76-10.13-13.79Z"/>
          </g>
          <g class="cls-2">
            <path d="M260.96,151.24c1.58-5.56,6.74-9.82,12.51-10.29.48-.04.48-.79,0-.75-6.11.5-11.55,4.94-13.23,10.84-.13.47.59.66.72.2h0Z"/>
          </g>
        </g>
        <g>
          <path class="cls-20" d="M222.43,131.91s.75,2.29.21,3.03c-.54.74-1.2.91-1.2.91,0,0,1.15,1.71.7,2.8,0,0,1.73,1.94.7,3.26-1.03,1.31-2.17.57-2.53,0-.36-.57-1.92,3.46-3.89,2.59-1.98-.88-.06-3.22.54-4.07l-1.92.29s-2.81,6.29-4.91,6.57-7.84-.31-8.35-2.78c0,0,8.96-16.38,9.58-16.74.46-.26,5.77-1.42,8.54-2.02,1.03-.22,2.09.22,2.62,1.09.88,1.44,1.95,3.53,1.16,4.13l-1.24.95"/>
          <path class="cls-2" d="M201.1,145.86c-.49.69-15.08,45.88-12.65,54.22,2.43,8.34,6.07,11.35,12.14,10.19,6.07-1.16,9.23-3.01,9.95-10.65.73-7.64,5.88-50.06,2.32-52.27-1.71-1.06-11.76-1.48-11.76-1.48Z"/>
          <g>
            <path class="cls-28" d="M198.73,144.09c-.49.69-15.08,45.88-12.66,54.22,2.43,8.34,6.07,11.35,12.14,10.19,6.07-1.16,9.23-3.01,9.95-10.65.73-7.64,6.91-50.15,5.05-50.92-1.86-.76-14.49-2.84-14.49-2.84Z"/>
            <path class="cls-2" d="M198.73,144.09c-.49.69-15.08,45.88-12.66,54.22,2.43,8.34,6.07,11.35,12.14,10.19,6.07-1.16,9.23-3.01,9.95-10.65.73-7.64,6.91-50.15,5.05-50.92-1.86-.76-14.49-2.84-14.49-2.84Z"/>
          </g>
        </g>
        <g>
          <path class="cls-20" d="M248.95,137.23s-6.79,5.76-8.56,6.2c-2.38.59-9.77-7.37-9.77-7.37,2.93-3.81,1.51-6.73.85-11.11l18.68-18.04s-1.95-.05-1.96,0c-.48,1.57-.59,11.07-.25,23.09l1,7.23Z"/>
          <g>
            <g class="cls-11">
              <path d="M240.96,124.06c-1.57,3.06-5.03,5.43-8.51,6.38-.03-.32-.15-.79-.19-1.11-.06-.5-.25-1.25-.35-1.77-.13-.64-.29-1.32-.48-1.97-.09-.25-.19-.19-.28-.44l-.19-.52,9.7-6.24c1.02.41,1.58,3.18.32,5.66Z"/>
            </g>
            <path class="cls-20" d="M248.82,94.48c-.3-12.01-12.8-20.02-23.92-14.34-11.28,5.77-11.38,23.64-7.88,34.16,3.88,11.68,19.1,15.88,27.38,5.87,5.5-6.65,4.72-13.67,4.42-25.68h0Z"/>
          </g>
          <path class="cls-12" d="M232.06,101.82c.19,1.21-.3,2.29-1.09,2.41-.79.12-1.59-.77-1.79-1.98-.19-1.21.3-2.29,1.09-2.41.79-.12,1.59.77,1.79,1.98Z"/>
          <path class="cls-12" d="M219.73,103.06c.19,1.21-.3,2.29-1.09,2.41-.79.12-1.59-.77-1.79-1.98-.19-1.21.3-2.29,1.09-2.41.79-.12,1.59.77,1.79,1.98Z"/>
          <path class="cls-22" d="M224.35,100.92s-2.89,6.63-3.73,9.28c1.93,1.26,4.72.1,4.72.1l-.99-9.37Z"/>
          <path class="cls-12" d="M233.34,95.45c-.16.12-.38.16-.58.08-2.33-.94-3.99.12-4.16.24-.26.18-.62.12-.8-.14-.18-.26-.12-.62.14-.8.09-.06,2.29-1.55,5.25-.36.3.12.44.45.32.74-.04.09-.1.17-.17.23Z"/>
          <path class="cls-12" d="M216.09,100.22c-.1-.05-.18-.13-.24-.23-.16-.28-.06-.63.21-.79,2.74-1.58,5.09-.38,5.21-.34.28.15.39.49.25.78-.14.28-.48.39-.76.25-.1-.05-1.92-.96-4.12.31-.17.1-.38.1-.54.01Z"/>
          <path class="cls-12" d="M245.27,101.74s-1.81-20.34-8.16-21.11-7.33,5.15-11.49,5.31c-4.16.16-4.1-2.92-4.1-2.92-2.42,1.73-4.06,6.69-5.75,10.52,0,0,.86-11.17,5.28-14.58,8.59-6.63,20.66-5.42,26.13-.37,5.37,4.96,5.43,15.71,5.43,15.71-.54,8.26-1.15,12.89-4.35,18.19l-2.97-10.74Z"/>
          <g>
            <path class="cls-20" d="M254.06,101.96c-.48,3.32-2.46,6.09-4.71,7.68-3.38,2.4-5.38-1.39-5.64-5.32-.24-3.53.11-7.93,4.08-8.78,3.91-.83,6.82,2.62,6.27,6.41Z"/>
            <path class="cls-6" d="M250.72,99c-.61-.66-1.66-.77-2.49-.42-.83.35-1.44,1.07-1.85,1.87-.49.95-.73,2.04-.69,3.11"/>
          </g>
          <path class="cls-12" d="M242.27,85.05c-.91-2.77-2.74-5.37-5.41-6.53-1.26-.55-2.65-.76-4.02-.87-3.65-.31-1.23-1.53-4.88-1.23l-3.41.85c-2.59,1.03-7.37,3.76-9.58,5.47-3.5,2.71-7.51,4.77-11.76,6.02-.72.21-1.58.53-1.7,1.27-.13.75.59,1.35,1.25,1.72,4.27,2.35,9.82,2.16,13.92-.48-.93,2.72-6.24,4.04-4.28,4.25,5.99,1.3,12.63-.98,16.55-5.69,0,.79,0,1.61.31,2.34.31.73,1.03,1.35,1.82,1.29.64-.05,1.17-.51,1.58-1.01,1.44-1.74,1.96-4.04,2.45-6.25,2.56,2.71,6.39,12.85,9.34,15.13,5.05-6.75-1.28-13.5-2.19-16.27Z"/>
          <path class="cls-12" d="M227.53,114.35c1.26-.71,2.85-.8,4.17-.2.18.08.4.05.51-.13.09-.16.05-.43-.13-.51-1.58-.71-3.42-.65-4.93.2-.42.24-.04.89.38.65h0Z"/>
          <path class="cls-12" d="M242.34,75.72c-.29-1.25-.79-2.46-1.46-3.55-.31-.5-1.02-.74-1.54-.4-.5.32-.74,1-.4,1.54.3.48.56.98.78,1.5-.04-.09-.08-.18-.11-.27.24.58.43,1.17.57,1.78.13.57.82.97,1.38.79.6-.19.93-.77.79-1.38h0Z"/>
          <path class="cls-12" d="M243.48,78.31c0-.12,0-.23.01-.35,0-.06-.01-.31.03-.35-.02.02-.04.24,0,.07,0-.05.02-.1.03-.15.02-.11.05-.23.07-.34.05-.23.12-.45.2-.67.02-.05.04-.1.05-.14.06-.16.06-.06,0,.02.07-.07.1-.23.15-.31.1-.2.21-.39.33-.57.06-.1.13-.19.2-.29.02-.03.13-.17.03-.04-.11.14.03-.04.06-.07.14-.17.29-.33.45-.48.08-.08.17-.16.26-.23.05-.04.1-.08.15-.12.11-.1-.22.16-.01.01.24-.18.43-.37.52-.67.07-.27.04-.63-.11-.87-.3-.47-1.03-.78-1.54-.4-1.89,1.4-3.07,3.58-3.09,5.96,0,.59.52,1.15,1.12,1.12.61-.03,1.12-.49,1.12-1.12h0Z"/>
        </g>
      </g>
    </g>
    <g id="Character_2">
      <g>
        <g>
          <path class="cls-12" d="M331.19,158.47s6.17.54,10.27,7.62c4.1,7.07,8.12,12.86,8.12,12.86l-13.26,8.84-5.13-29.31Z"/>
          <path class="cls-18" d="M331.19,158.47s6.17.54,10.27,7.62c4.1,7.07,8.12,12.86,8.12,12.86l-13.26,8.84-5.13-29.31Z"/>
        </g>
        <path class="cls-12" d="M338.89,219.51c-1.48-.99-3.37-1.06-5.14-1.08-13.3-.13-26.62,1.1-39.68,3.67l-2.29,1.13c-1.81-1.05-4.22-.34-5.75,1.09-1.52,1.44-2.35,3.44-3.13,5.37-6.77,16.76-13.21,33.7-17.78,51.19-1.06,4.05-1.97,8.56.02,12.24,2.32,4.29,7.66,5.81,12.47,6.66,15.7,2.79,31.74,2.96,47.69,3,3.88,0,8.02-.07,11.22-2.27,4.47-3.08,5.53-9.13,6.05-14.53,1.9-19.74,1.73-39.69-.61-59.38-.31-2.65-.86-5.62-3.07-7.1Z"/>
        <g>
          <polygon class="cls-23" points="323.84 454.09 334.87 455.17 343.02 427.23 326.24 425.41 323.84 454.09"/>
          <g>
            <path class="cls-12" d="M336.47,450.3h-3.94c-.89,0-1.72.45-2.24,1.17-2.27,3.1-3.98,1.93-6.45-.99-1.57-.18-1.99,1.62-2.12,2.1l-2.94,10.71c-.26.89.26,1.83,1.16,2.08.16.05.32.07.49.06h31.21c4.96,0,5.99-5,3.95-5.47-9.19-2.03-15.7-4.74-18.55-7.41-.53-.47.01-.82-.56-2.27Z"/>
            <path class="cls-28" d="M345.02,453.34c.41-.3.66-.78.67-1.29.03-.27-.09-.54-.32-.69-1.23-.87-6.16,1.43-6.71,1.7-.06.02-.11.07-.13.13-.04.11.02.24.13.28,1.21.29,2.45.45,3.69.48.93.09,1.87-.12,2.67-.6ZM345.05,451.73c.1.06.15.18.13.3-.02.37-.2.71-.49.94-1.12.84-3.82.48-5.27.21,2.04-.9,4.95-1.92,5.63-1.44Z"/>
            <path class="cls-28" d="M338.82,453.52c1.48-.62,4.58-3.05,4.41-4.33-.03-.27-.22-.59-.89-.68-2.7-.31-3.86,4.54-3.86,4.75-.03.08,0,.17.06.23.05.01.1.01.15,0l.12.04ZM342.25,448.9c.5.05.5.23.5.3.14.78-2.11,2.8-3.72,3.65.33-1.13,1.32-3.96,3.03-3.96h.18Z"/>
            <path class="cls-5" d="M339.2,453.33c-1.36.19-2.62,1-3.35,2.15"/>
            <path class="cls-5" d="M341.65,455.18c-1.36.19-2.62,1-3.35,2.15"/>
            <path class="cls-5" d="M344.7,456.73c-1.36.19-2.62,1-3.35,2.15"/>
          </g>
          <polygon class="cls-2" points="338.71 442 337.71 445.42 324.73 443.43 324.97 440.62 338.71 442"/>
        </g>
        <g>
          <polygon class="cls-23" points="285.6 454.97 296.64 456.05 304.79 428.12 288.01 426.29 285.6 454.97"/>
          <g>
            <path class="cls-12" d="M298.24,451.18h-3.94c-.89,0-1.72.45-2.24,1.17-2.27,3.1-3.98,1.93-6.45-.99-1.57-.18-1.99,1.62-2.12,2.1l-2.94,10.71c-.26.89.26,1.83,1.16,2.08.16.05.32.07.49.06h31.21c4.96,0,5.99-5,3.95-5.47-9.19-2.03-15.7-4.74-18.55-7.41-.53-.47.01-.82-.56-2.27Z"/>
            <path class="cls-28" d="M306.78,454.23c.41-.3.66-.78.67-1.29.03-.27-.09-.54-.32-.69-1.23-.87-6.16,1.43-6.71,1.7-.06.02-.11.07-.13.13-.04.11.02.24.13.28,1.21.29,2.45.45,3.69.48.93.09,1.87-.12,2.67-.6ZM306.82,452.62c.1.06.15.18.13.3-.02.37-.2.71-.49.94-1.12.84-3.82.48-5.27.21,2.04-.9,4.95-1.92,5.63-1.44Z"/>
            <path class="cls-28" d="M300.59,454.41c1.48-.62,4.58-3.05,4.41-4.33-.03-.27-.22-.59-.89-.68-2.7-.31-3.86,4.54-3.86,4.74-.03.08,0,.17.06.23.05.01.1.01.15,0l.12.04ZM304.02,449.79c.5.05.5.23.5.3.14.78-2.11,2.8-3.72,3.65.33-1.13,1.32-3.96,3.03-3.96h.18Z"/>
            <path class="cls-5" d="M300.97,454.22c-1.36.19-2.62,1-3.35,2.15"/>
            <path class="cls-5" d="M303.42,456.06c-1.36.19-2.62,1-3.35,2.15"/>
            <path class="cls-5" d="M306.46,457.61c-1.36.19-2.62,1-3.35,2.15"/>
          </g>
          <polyline class="cls-2" points="286.5 444.31 286.73 441.51 300.48 442.88 299.48 446.31"/>
        </g>
        <path class="cls-8" d="M344.85,242.05s-8.1,8.55-23.98,8.7c-15.88.15-33.69-9.1-33.69-9.1l1.99-3.41,45.73,4.98,8.75-4.98,1.2,3.82Z"/>
        <g>
          <g>
            <path class="cls-28" d="M346.24,246.96s9.65,39.53,14.01,74.7c1.33,10.72,1.58,25.06-.77,35.61l-17.63,87.62-22.18-2.22c3.49-37.79,8.34-84.4,9.73-104.23l-25.5-79.34,42.32-12.14Z"/>
            <path class="cls-8" d="M317.59,301.75c-.07.37,10.98-44.83,10.98-44.83,0,0,2.97,36.89-8.14,54.5l-2.84-9.67Z"/>
            <path class="cls-28" d="M285.25,349.49c.21-2.23.42-6.74.62-12.67-.03,0-.06,0-.09,0-.31-7.77-3.73-43.55-4.32-66.58-.06-14.71,2.33-24.99,5.42-30.28.16-.27.3-.52.44-.74.52-.85.83-1.33.83-1.33.73.08,1.46.15,2.18.21.27.02.54.04.8.06,27.01,2,46.82-8.66,46.82-8.66,3.21,5.65,4.77,4.48,8.3,17.46-2.35,3.38-9.55,23.24-23.04,27.68l-1.57,18.37c-.6,11.34-1.82,22.55-2.79,32.63l-.94,11.02c-.05.72-.1,1.44-.14,2.14-.38,6.31-15.75,109.27-15.75,109.27l-20.55-.3s.97-68.04,3.8-98.27Z"/>
          </g>
          <polygon class="cls-8" points="343.01 439.2 341.86 444.9 319.68 442.68 320.26 436.49 343.01 439.2"/>
          <polygon class="cls-8" points="302 448.06 302.87 442.24 281.45 441.99 281.45 447.76 302 448.06"/>
        </g>
        <g>
          <path class="cls-12" d="M282.74,187.87l-6.9-23.52c4.36-6.51,25.95-11.52,25.95-11.52l14.22.78s5.47,1.22,10.15,2.75c6.25,2.04,9.63,3.68,11.12,7.14,0,0,2.61,7.68,1.04,23.51-.43,4.35-1.42,27.32-.2,34.8l8.84,17.29c-25.99,20.24-59.26,0-59.26,0,1.17-3.57,3.74-11.49,4.26-14.98-.38-4.46-1.63-7.38-3.52-15.18-.36-1.51-5.07-19.61-5.7-21.07Z"/>
          <path class="cls-18" d="M282.74,187.87l-6.9-23.52c4.36-6.51,25.95-11.52,25.95-11.52l14.22.78s5.47,1.22,10.15,2.75c6.25,2.04,9.63,3.68,11.12,7.14,0,0,2.61,7.68,1.04,23.51-.43,4.35-1.42,27.32-.2,34.8l8.84,17.29c-25.99,20.24-59.26,0-59.26,0,1.17-3.57,3.74-11.49,4.26-14.98-.38-4.46-1.63-7.38-3.52-15.18-.36-1.51-5.07-19.61-5.7-21.07Z"/>
          <polygon class="cls-8" points="285.44 196.29 286.71 196.29 290.53 185.01 288.84 210.56 285.32 197.19 285.44 196.29"/>
        </g>
        <g>
          <path class="cls-12" d="M312.73,228.43c-6.44-4.42-14.44-6.5-22.22-5.76l-3.8,9.99c10.64,9.59,23.66,10.88,37.98,10.44,2.02-7.41-5.52-10.25-11.96-14.66Z"/>
          <path class="cls-12" d="M342.67,222c-1.05-1.96-3.19-3.53-5.39-3.19-1.64.25-2.95,1.46-4.08,2.68-4.5,4.82-7.96,10.59-10.09,16.83l.84,4.78c1.48-.61,2.96-1.22,4.44-1.82,4.2-1.72,8.53-3.53,11.66-6.81,3.14-3.28,4.76-8.46,2.62-12.46Z"/>
          <path class="cls-12" d="M331.03,239.12c0,3.32-2.69,6.01-6.01,6.01s-6.01-2.69-6.01-6.01,2.69-6.01,6.01-6.01,6.01,2.69,6.01,6.01Z"/>
          <path class="cls-12" d="M327.63,262.75c-.5-7.14-1-14.28-1.49-21.42l-2.8,1.82c-8.76,12.79-12.59,28.87-10.56,44.24,3.73.64,7.54.89,11.32.73-1.07-2.25-2.13-4.51-3.2-6.76,3.3-1.29,5.48-4.59,6.35-8.02.87-3.44.63-7.04.38-10.58Z"/>
          <path class="cls-12" d="M339.78,270.28c1.6-2.18,1.89-5.05,1.72-7.75-.54-8.57-5.5-16.74-12.85-21.18l-1.2-.94c4.27,12.88,3.44,26.82,2.56,40.36,2.87-.58,5.74-1.16,8.61-1.74-.88-1.78-1.79-3.82-1.09-5.67.45-1.19,1.48-2.05,2.24-3.08Z"/>
        </g>
        <g>
          <g>
            <path class="cls-12" d="M317.22,111.69s2.36,26.13,3.66,33.64c4.1,4.91,20.33,1.36,13.98-15.91-3.35-9.12-3.64-20.64-9.97-25.34-8.89-6.59-7.67,7.61-7.67,7.61Z"/>
            <g>
              <g>
                <path class="cls-23" d="M315.03,154.89c-1.49-1.49-2.16-3.03-1.88-5.19.2-1.66.73-3.39,1.37-5.07l-2.22-2.41-11.55-10.84c.55,7.5,1.89,19.52-3.83,23.8l18.1,14.63v-14.92Z"/>
                <path class="cls-11" d="M313.09,150.2c-3.13-1.71-6.6-4.74-6.33-8.36.12-1.52.4-2.97.73-3.91l6.55,8.05c-.46,1.35-.65,2.19-.95,4.22Z"/>
                <path class="cls-23" d="M297.73,119.43c1.46,11.41,1.84,16.25,7.96,22.04,9.21,8.7,22.77,5.17,24.71-6.26,1.75-10.29-.94-27.21-12.35-31.61-11.24-4.34-21.79,4.43-20.32,15.83Z"/>
                <path class="cls-11" d="M322.75,145.22c-9.03-4.11-12.57-3-11.91-.72.3,1.04,4.37,1.68,4.37,1.68,0,0,.91.09,1.35.12.39.03.64.25.62.26-.31.32,5.27-.95,5.57-1.35Z"/>
                <path class="cls-2" d="M328.38,140.49s-.43-.56-1.17-.3-2.46,1.63-2.47,3.96c0,0,.93-.59,1.97-1.57.66-.62,1.68-2.09,1.68-2.09Z"/>
                <path class="cls-12" d="M313.25,123.45c0,1.07.63,1.99,1.38,2.04.75.05,1.35-.78,1.34-1.85s-.63-1.99-1.38-2.04c-.75-.05-1.35.78-1.34,1.85Z"/>
                <path class="cls-12" d="M324.89,122.45c-.05,1.04.51,1.96,1.26,2.05.74.1,1.39-.67,1.44-1.71.05-1.04-.51-1.96-1.26-2.05-.74-.1-1.39.67-1.44,1.71Z"/>
                <path class="cls-12" d="M311.53,121.69c.15,0,.29-.04.4-.15,1.69-1.71,3.7-1.23,3.72-1.23.3.07.59-.11.64-.41.05-.3-.15-.61-.45-.69-.11-.03-2.63-.63-4.72,1.49-.21.21-.2.57.03.8.11.11.25.17.38.18Z"/>
                <path class="cls-12" d="M329.55,116.14c.13-.04.25-.13.31-.26.13-.27,0-.6-.28-.74-2.89-1.39-5.14-.19-5.23-.13-.27.15-.35.48-.18.74.17.26.52.35.79.21.09-.05,1.85-.96,4.14.15.15.07.31.08.45.03Z"/>
                <path class="cls-12" d="M306.74,100.79c-3.93.65-6.4,1.21-9.5,3.15-3.1,1.94-6.41,6.65-8.21,10.25-2.57,5.13-2.76,11.42-2.88,17.41-.08,3.94-.06,8.22,1.94,11.34,1.34,2.09,3.43,3.34,5.58,3.92,2.14.58,4.36.54,6.56.47,1.81-.05,4.02-.44,4.69-2.46,1.06-3.19-2.93-6.15-2.39-9.52"/>
                <path class="cls-23" d="M294.6,128.89c1.44,2.3,3.69,3.69,5.72,4.12,3.06.65,4.44-4.28,3.3-7.27-1.03-2.7-4.07-4.4-7-3.7-2.88.69-3.66,4.22-2.02,6.85Z"/>
                <path class="cls-21" d="M320.88,121.73s1.95,4.22,4.06,6.82c.37.45.18,1.14-.37,1.36-1.39.57-3.07.16-3.07.16l-.63-8.34Z"/>
              </g>
              <path class="cls-12" d="M314.36,121.57l2.65-.5s-1.53,1.89-2.65.5Z"/>
              <path class="cls-12" d="M326.06,120.74l2.68-.34s-1.64,1.8-2.68.34Z"/>
            </g>
            <path class="cls-12" d="M294.64,113.18c-1.55,2.24,1.54,8.76,1.54,8.76,0,0,5.49-1.63,5.79,6.64,2.02.34,4.3-7.39,3.97-15.15-.41-4.38-8.55-4.21-11.29-.25Z"/>
            <path class="cls-6" d="M298.81,124.89c-.97-.37-1.98.27-2.3,1.07-.39.97.15,3.22,3.12,3.93"/>
          </g>
          <path class="cls-12" d="M327,106.82c-2.42-5.03-12.28-9.71-23.62-4.85-10.25,4.38-14.6,19.41-7.19,19.97,7.41.56,19.33-8.4,19.33-8.4l11.49-6.72Z"/>
        </g>
        <g>
          <path class="cls-23" d="M341.85,196.34l11.54.27,2.57,5.87-5.93,7.51s-1.42-.09-.95-2.07c.36-1.53,1.19-2.73,1.19-2.73l-7.88,2.37c-1.49.45-3.01-.63-3.07-2.19l-.36-9.07,2.89.04Z"/>
          <path class="cls-23" d="M274.35,175.27s-.42,5.67,1.91,12.83c2.33,7.15,8.11,26.24,14.96,31.5,6.85,5.26,24.21-2.6,34.63-7.15,10.32-4.5,15.82-6.66,16-6.69l-2.89-9.46-37.85,5.52-16.24-34.56s-11.66-.1-10.52,8.03Z"/>
          <path class="cls-11" d="M335.16,195.58s2.7,7.04,6.09,8.21c3.39,1.17,12,1.5,12.76-6.61l-18.84-1.6Z"/>
        </g>
        <g>
          <path class="cls-12" d="M275.84,164.35c-7.1,6.87.84,33.44.84,33.44l22.68-5.98s-5.39-20.02-10.81-25.06c-4.59-4.25-8.81-6.29-12.71-2.4Z"/>
          <g class="cls-27">
            <path class="cls-15" d="M275.84,164.35c-7.1,6.87.84,33.44.84,33.44l22.68-5.98s-5.39-20.02-10.81-25.06c-4.59-4.25-8.81-6.29-12.71-2.4Z"/>
          </g>
        </g>
        <path class="cls-12" d="M319.63,133.88c.88-.03,1.76,0,2.64.1.43.05.86.11,1.29.19.25.05.77.05.92.3.25.41.9.03.65-.38-.22-.35-.54-.48-.93-.55-.51-.1-1.02-.19-1.53-.25-1.01-.13-2.02-.17-3.03-.14-.48.01-.48.76,0,.75h0Z"/>
        <g>
          <path class="cls-11" d="M313.09,150.8s-1.19.39-.91,1.68c.29,1.29.74,1.45.74,1.45,0,0-1.31,1.41.17,2.96,0,0,.83.86,2.45.63,0,0,3.48,5.83,6.3,6.05l.86.16,8.09,16.96-8.57-30.5-9.12.6Z"/>
          <path class="cls-23" d="M330.53,155.99s-.2-8.27-.84-9.64c-.64-1.37-1.41-1.78-1.41-3.28s.27-2.69-.59-2.51c-.87.18-1.69,1.78-1.92,2.96-.23,1.19.27,4.33.27,4.33,0,0-6.52-3.92-9.12-4.52-2.17-.49-4.74-.86-5.57.14-.35.43-.16,1.09.32,1.36.39.22,1.03.48,2.1.74,3.6.87,4.79,1.55,4.79,1.55,0,0-3.47-.18-4.38.46-.91.64-.87,1.09-.64,1.82.23.73.82,1.23.82,1.23,0,0-1.14-.36-1.55,1.09-.41,1.46.73,1.96.73,1.96,0,0-1.09,1.05-.46,2.37.64,1.32,2.51.87,2.51.87,0,0,4.88,5.93,6.75,6.07,1.87.14,4.29-1.19,4.1-1.19s4.33-5.25,4.33-5.25l-.26-.58Z"/>
          <path class="cls-23" d="M322.95,162.62s9.14,27.67,12.6,33.67c3.46,6,9.29,7.95,14.93,5.42,1.35-.61,2.42-2.11,3.26-3.92,2.55-5.47.75-9.04-2.1-14.36l-2.33-4.34-4.73,3.1-14.34-26.73-7.28,7.16Z"/>
        </g>
      </g>
    </g>
  </g>
</svg>