<svg width="600" height="400" viewBox="0 0 600 400" fill="none" xmlns="http://www.w3.org/2000/svg">
  <!-- Wifi Simgesi Arka Plan -->
  <circle cx="300" cy="200" r="150" fill="#E6F5FF" opacity="0.7"/>
  
  <!-- WiFi Dalgaları -->
  <path d="M300 280 C220 280 160 220 160 140" stroke="#4FC3F7" stroke-width="8" stroke-linecap="round" opacity="0.7"/>
  <path d="M300 280 C240 280 190 230 190 170" stroke="#29B6F6" stroke-width="8" stroke-linecap="round" opacity="0.8"/>
  <path d="M300 280 C260 280 230 250 230 210" stroke="#03A9F4" stroke-width="8" stroke-linecap="round" opacity="0.9"/>
  
  <path d="M300 280 C380 280 440 220 440 140" stroke="#4FC3F7" stroke-width="8" stroke-linecap="round" opacity="0.7"/>
  <path d="M300 280 C360 280 410 230 410 170" stroke="#29B6F6" stroke-width="8" stroke-linecap="round" opacity="0.8"/>
  <path d="M300 280 C340 280 370 250 370 210" stroke="#03A9F4" stroke-width="8" stroke-linecap="round" opacity="0.9"/>
  
  <!-- Wifi Noktası -->
  <circle cx="300" cy="280" r="10" fill="#0288D1"/>
  
  <!-- Android Tablet -->
  <rect x="140" y="120" width="120" height="80" rx="4" fill="#A4C639" stroke="#8AA62F" stroke-width="2"/>
  <rect x="150" y="130" width="100" height="60" fill="#FFFFFF" opacity="0.9"/>
  <circle cx="200" cy="195" r="3" fill="#FFFFFF"/>
  
  <!-- iOS Tablet -->
  <rect x="340" y="120" width="120" height="80" rx="10" fill="#A2AAAD" stroke="#7D868C" stroke-width="2"/>
  <rect x="350" y="130" width="100" height="60" fill="#FFFFFF" opacity="0.9"/>
  <circle cx="400" cy="195" r="3" fill="#FFFFFF"/>
  
  <!-- Senkronizasyon İkonları -->
  <g transform="translate(180, 160)">
    <path d="M10,15 A10,10 0 1,1 30,15 L25,20 L30,15 L25,10" fill="none" stroke="#0277BD" stroke-width="2"/>
    <path d="M30,15 A10,10 0 1,1 10,15 L15,20 L10,15 L15,10" fill="none" stroke="#0277BD" stroke-width="2"/>
  </g>
  
  <g transform="translate(380, 160)">
    <path d="M10,15 A10,10 0 1,1 30,15 L25,20 L30,15 L25,10" fill="none" stroke="#0277BD" stroke-width="2"/>
    <path d="M30,15 A10,10 0 1,1 10,15 L15,20 L10,15 L15,10" fill="none" stroke="#0277BD" stroke-width="2"/>
  </g>
  
  <!-- İkonlar ve dekoratif öğeler -->
  <circle cx="200" cy="90" r="15" fill="#E91E63" opacity="0.7"/>
  <circle cx="250" cy="70" r="10" fill="#9C27B0" opacity="0.7"/>
  <circle cx="350" cy="90" r="10" fill="#FF9800" opacity="0.7"/>
  <circle cx="400" cy="70" r="15" fill="#4CAF50" opacity="0.7"/>
  
  <path d="M170 240 L230 240" stroke="#2196F3" stroke-width="2" stroke-dasharray="5,5"/>
  <path d="M370 240 L430 240" stroke="#2196F3" stroke-width="2" stroke-dasharray="5,5"/>
  <path d="M240 240 C240,260 360,260 360,240" stroke="#2196F3" stroke-width="2" stroke-dasharray="5,5"/>
  
  <!-- Offline Simge -->
  <g transform="translate(170, 260)">
    <circle cx="10" cy="10" r="8" fill="#F44336" opacity="0.8"/>
    <path d="M6,6 L14,14 M14,6 L6,14" stroke="white" stroke-width="2"/>
  </g>
  
  <!-- Online Simge -->
  <g transform="translate(410, 260)">
    <circle cx="10" cy="10" r="8" fill="#4CAF50" opacity="0.8"/>
    <path d="M7,10 L9,12 L13,7" stroke="white" stroke-width="2"/>
  </g>
  
  <!-- Bulut İkonu -->
  <g transform="translate(285, 50) scale(0.8)">
    <ellipse cx="30" cy="30" rx="20" ry="12" fill="#BBDEFB"/>
    <ellipse cx="20" cy="25" rx="15" ry="10" fill="#BBDEFB"/>
    <ellipse cx="40" cy="25" rx="15" ry="10" fill="#BBDEFB"/>
    <path d="M30,42 L30,55" stroke="#90CAF9" stroke-width="2"/>
    <path d="M25,50 L35,50" stroke="#90CAF9" stroke-width="2"/>
  </g>
</svg> 