<svg width="387" height="361" viewBox="0 0 387 361" fill="none" xmlns="http://www.w3.org/2000/svg">
<g clip-path="url(#clip0_68_3444)">
<path d="M260.474 13.9583C260.474 21.6634 254.221 27.9165 246.497 27.9165H114.28C106.565 27.9165 100.304 21.6723 100.304 13.9583C100.304 6.25316 106.556 0 114.28 0H246.497C254.212 0 260.474 6.24426 260.474 13.9583Z" fill="#B1E6EC"/>
<path d="M316.878 24.888C316.878 32.5931 310.625 38.8462 302.901 38.8462H293.135C285.42 38.8462 279.159 32.602 279.159 24.888C279.159 17.1829 285.411 10.9297 293.135 10.9297H302.901C310.616 10.9297 316.878 17.1739 316.878 24.888Z" fill="#B1E6EC"/>
<path d="M37.7096 69.7735C37.7096 77.4786 31.4573 83.7317 23.7334 83.7317H13.967C6.25194 83.7317 -0.00927734 77.4875 -0.00927734 69.7735C-0.00927734 62.0684 6.24302 55.8152 13.967 55.8152H23.7334C31.4484 55.8152 37.7096 62.0594 37.7096 69.7735Z" fill="#B1E6EC"/>
<path d="M371.596 286.603C371.596 294.308 365.344 300.562 357.62 300.562H347.854C340.139 300.562 333.877 294.317 333.877 286.603C333.877 278.898 340.13 272.645 347.854 272.645H357.62C365.335 272.645 371.596 278.889 371.596 286.603Z" fill="#B1E6EC"/>
<path d="M56.5739 328.469C56.5739 336.174 50.3216 342.428 42.5976 342.428H32.8312C25.1162 342.428 18.855 336.183 18.855 328.469C18.855 320.764 25.1073 314.511 32.8312 314.511H42.5976C50.3127 314.511 56.5739 320.755 56.5739 328.469Z" fill="#B1E6EC"/>
<path d="M352.215 69.7735C352.215 77.4786 345.963 83.7317 338.239 83.7317H70.068C62.353 83.7317 56.0918 77.4875 56.0918 69.7735C56.0918 62.0684 62.3441 55.8152 70.068 55.8152H338.239C345.954 55.8152 352.215 62.0594 352.215 69.7735Z" fill="#B1E6EC"/>
<path d="M277.134 97.2268C277.134 89.5217 283.387 83.2686 291.111 83.2686H79.3442C87.0593 83.2686 93.3205 89.5128 93.3205 97.2268C93.3205 104.941 87.0682 111.185 79.3442 111.185H291.111C283.396 111.185 277.134 104.941 277.134 97.2268Z" fill="#B1E6EC"/>
<path d="M314.095 124.68C314.095 132.385 307.843 138.638 300.119 138.638H20.1213C12.4062 138.638 6.14502 132.394 6.14502 124.68C6.14502 116.975 12.3973 110.722 20.1213 110.722H300.128C307.843 110.722 314.104 116.966 314.104 124.68H314.095Z" fill="#B1E6EC"/>
<path d="M299.994 152.134C299.994 144.428 306.246 138.175 313.97 138.175H67.3481C75.0632 138.175 81.3244 144.42 81.3244 152.134C81.3244 159.848 75.0721 166.092 67.3481 166.092H313.97C306.255 166.092 299.994 159.848 299.994 152.134Z" fill="#B1E6EC"/>
<path d="M387 179.587C387 187.292 380.748 193.545 375.7 193.545H62.9332C52.5425 193.545 46.2812 187.301 46.2812 179.587C46.2812 171.882 52.5335 165.629 60.2575 165.629H373.024C380.739 165.629 387 171.873 387 179.587Z" fill="#B1E6EC"/>
<path d="M351.323 235.402C351.323 243.107 345.071 249.361 337.347 249.361H36.1755C28.4604 249.361 22.1992 243.116 22.1992 235.402C22.1992 227.697 28.4515 221.444 36.1755 221.444H337.347C345.062 221.444 351.323 227.688 351.323 235.402Z" fill="#B1E6EC"/>
<path d="M293.1 263.319C293.1 255.614 299.352 249.361 307.076 249.361H59.4814C67.1965 249.361 73.4577 255.605 73.4577 263.319C73.4577 271.033 67.2054 277.277 59.4814 277.277H307.067C299.352 277.277 293.091 271.033 293.091 263.319H293.1Z" fill="#B1E6EC"/>
<path d="M320.107 291.226C320.107 298.931 313.854 305.185 306.13 305.185H62.0412C54.3262 305.185 48.0649 298.94 48.0649 291.226C48.0649 283.521 54.3172 277.268 62.0412 277.268H306.13C313.845 277.268 320.107 283.512 320.107 291.226Z" fill="#B1E6EC"/>
<path d="M243.759 319.134C243.759 311.429 250.011 305.176 257.735 305.176H111.694C119.409 305.176 125.67 311.42 125.67 319.134C125.67 326.848 119.418 333.092 111.694 333.092H257.726C250.011 333.092 243.75 326.848 243.75 319.134H243.759Z" fill="#B1E6EC"/>
<path d="M271.943 347.051C271.943 354.756 265.691 361.009 257.967 361.009H111.988C104.273 361.009 98.0117 354.765 98.0117 347.051C98.0117 339.345 104.264 333.092 111.988 333.092H257.967C265.682 333.092 271.943 339.337 271.943 347.051Z" fill="#B1E6EC"/>
<path d="M324.566 207.495C324.566 199.985 330.506 193.884 337.945 193.572C337.748 193.572 337.552 193.545 337.347 193.545H61.7021C69.4172 193.545 75.6784 199.789 75.6784 207.503C75.6784 215.217 69.4261 221.462 61.7021 221.462H337.347C337.552 221.462 337.74 221.444 337.945 221.435C330.506 221.123 324.566 215.013 324.566 207.512V207.495Z" fill="#B1E6EC"/>
<path d="M204.292 41.866C204.292 34.1609 210.544 27.9077 218.268 27.9077H127.641C135.356 27.9077 141.617 34.152 141.617 41.866C141.617 49.58 135.365 55.8243 127.641 55.8243H218.268C210.553 55.8243 204.292 49.58 204.292 41.866Z" fill="#B1E6EC"/>
<path d="M96.3081 35.5504C98.4309 34.1609 99.2158 31.3728 98.0474 29.0568L89.5742 12.3193C89.1639 11.5087 88.5664 10.8585 87.8528 10.3953L79.0586 31.3728L96.3081 35.5504Z" fill="#2E9BC6"/>
<path d="M49.3136 30.0811C49.3136 30.856 49.4831 31.6399 49.8577 32.3792L58.3308 49.1167C59.4546 51.3436 62.0055 52.368 64.3066 51.6643L71.1297 35.3811L49.3047 30.09L49.3136 30.0811Z" fill="#2E9BC6"/>
<path d="M82.7869 10.0924L52.0874 25.6006C50.9101 26.1974 50.0717 27.1862 49.6436 28.3264L71.8343 33.7066L73.5914 34.1341L75.7498 34.6597L76.606 32.6198L77.3017 30.9541L86.2119 9.70047C85.097 9.44215 83.884 9.54904 82.7869 10.1102V10.0924Z" fill="#2E9BC6"/>
<path d="M72.8958 35.7909L66.7148 50.5241L93.9003 36.7975L78.3632 33.0295L76.8024 36.744L72.8958 35.7909Z" fill="#2E9BC6"/>
<path d="M92.393 7.50911C94.0162 10.707 92.7319 14.6174 89.5299 16.2297C86.328 17.842 82.4125 16.5682 80.7981 13.3703C79.1749 10.1725 80.4592 6.26204 83.6612 4.64976C86.8631 3.03748 90.7786 4.31127 92.393 7.50911Z" fill="#FF7171"/>
<path d="M296.043 350.569C298.238 351.834 301.092 351.282 302.626 349.188L313.757 334.081C314.292 333.351 314.604 332.522 314.702 331.676L291.994 333.306L296.043 350.569Z" fill="#FFCB8F"/>
<path d="M279.73 306.227C279.034 306.574 278.41 307.082 277.92 307.741L266.789 322.848C265.308 324.853 265.54 327.587 267.217 329.324L284.85 328.059L279.73 306.227Z" fill="#FFCB8F"/>
<path d="M312.686 327.035L284.983 306.663C283.922 305.879 282.655 305.585 281.442 305.719L286.651 327.926L287.061 329.681L287.57 331.836L289.782 331.676L291.583 331.551L314.595 329.903C314.327 328.79 313.676 327.766 312.686 327.035Z" fill="#FFCB8F"/>
<path d="M285.26 329.814L269.304 330.954L293.84 348.992L290.192 333.44L286.179 333.734L285.26 329.814Z" fill="#FFCB8F"/>
<path d="M319.331 334.437C317.199 337.323 313.132 337.938 310.242 335.818C307.353 333.689 306.737 329.627 308.86 326.741C310.992 323.855 315.059 323.24 317.948 325.36C320.838 327.48 321.454 331.551 319.331 334.437Z" fill="#A7DC94"/>
<path d="M96.3711 300.116C92.1702 298.326 87.3271 300.232 85.4541 304.365C81.2353 302.673 76.419 304.65 74.6263 308.837C72.8335 313.032 74.6976 317.958 78.8718 319.731C81.2175 320.729 93.8826 325.325 93.8826 325.325C93.8826 325.325 99.7068 313.567 100.848 310.912C102.632 306.744 100.563 301.898 96.3621 300.107L96.3711 300.116Z" fill="#2E9BC6"/>
<path d="M268.626 52.8757C266.744 45.4467 259.261 40.9305 251.831 42.6497C249.798 35.3009 242.261 30.8827 234.822 32.7711C227.393 34.6506 222.701 42.1509 224.574 49.5353C225.627 53.6863 232.387 75.2517 232.387 75.2517C232.387 75.2517 254.043 71.0562 258.752 69.8625C266.146 67.9919 270.517 60.3046 268.635 52.8846L268.626 52.8757Z" fill="#FF7171"/>
<path d="M10.3106 193.483C7.28704 195.175 11.1044 196.253 12.799 199.282C14.4937 202.302 13.4234 206.123 16.447 204.43L23.2255 200.636C26.2491 198.943 27.3283 195.122 25.6336 192.093C23.939 189.074 20.1127 187.996 17.0802 189.688L10.3017 193.483H10.3106Z" fill="#FFC3AE"/>
<path d="M20.2731 190.294C16.8125 192.227 15.5817 196.601 17.5171 200.048C19.4526 203.504 23.8318 204.733 27.2835 202.8L36.381 197.714C39.8416 195.781 32.9472 197.26 31.0117 193.804C29.0763 190.347 32.8223 183.275 29.3706 185.208L20.2731 190.294Z" fill="#FFC3AE"/>
<path d="M25.6784 188.708C24.9292 187.978 23.9213 187.506 22.7975 187.444L18.3647 186.09L17.5263 181.627C15.0468 181.493 14.0122 179.311 13.8784 181.787L13.263 193.091C13.1292 195.567 15.029 197.678 17.5085 197.812L27.5603 198.355C30.0398 198.489 32.1537 196.592 32.2875 194.115L26.8646 190.347C26.936 189.002 26.5792 189.59 25.6784 188.717V188.708Z" fill="#FFC3AE"/>
<path d="M17.7758 189.528C18.5339 190.873 20.2375 191.354 21.5842 190.597C22.931 189.84 23.4127 188.138 22.6545 186.793L14.8146 172.808C14.0565 171.463 12.353 170.982 11.0062 171.739C9.6594 172.497 9.17776 174.198 9.93589 175.543L17.7758 189.528Z" fill="#FFC3AE"/>
<path d="M25.8567 200.101C26.6684 201.571 28.5325 202.105 30.0041 201.295C31.4758 200.484 32.0109 198.623 31.1993 197.153L23.511 183.355C21.7272 180.184 29.7812 176.407 19.3458 182.17H19.3636C17.892 182.972 17.3568 184.834 18.1685 186.303L25.8567 200.101Z" fill="#D8A798"/>
<path d="M27.789 177.439L22.4822 180.408C20.3163 181.62 19.5442 184.356 20.7577 186.519L27.0745 197.78C28.288 199.943 31.0274 200.714 33.1933 199.502L38.5001 196.533C40.6659 195.321 41.4381 192.585 40.2246 190.422L33.9078 179.161C32.6943 176.998 29.9548 176.227 27.789 177.439Z" fill="#FFC3AE"/>
<path d="M13.3075 205.784C14.0032 207.023 15.5729 207.468 16.8127 206.773C18.0524 206.078 18.4984 204.511 17.8027 203.272L12.0142 192.948C11.3185 191.71 9.74875 191.265 8.509 191.96C7.26924 192.655 6.82329 194.222 7.51898 195.46L13.3075 205.784Z" fill="#2E9BC6"/>
<path d="M203.935 154.619C203.935 160.115 199.467 164.578 193.964 164.578C188.461 164.578 183.992 160.115 183.992 154.619V120.912C183.992 115.416 188.461 110.954 193.964 110.954C199.467 110.954 203.935 115.416 203.935 120.912V154.619Z" fill="#FFC3AE"/>
<path d="M192.055 138.647C187.604 143.092 209.724 85.4778 209.724 85.4778C209.724 85.4778 214.317 90.1632 218.759 94.6081C223.209 99.053 223.156 106.206 218.759 110.695C211.998 117.608 192.046 138.647 192.046 138.647H192.055Z" fill="#FFC3AE"/>
<path d="M200.635 116.993C200.635 123.273 195.534 128.368 189.246 128.368C182.958 128.368 177.856 123.273 177.856 116.993V100.469C177.856 94.1894 182.958 89.0942 189.246 89.0942C195.534 89.0942 200.635 94.1894 200.635 100.469V116.993Z" fill="#FFC3AE"/>
<path d="M192.18 109.938C192.18 112.61 190.012 114.775 187.337 114.775C184.661 114.775 182.494 112.61 182.494 109.938V98.3137C182.494 95.6414 184.661 93.4768 187.337 93.4768C190.012 93.4768 192.18 95.6414 192.18 98.3137V109.938Z" fill="#D8A798"/>
<mask id="mask0_68_3444" style="mask-type:luminance" maskUnits="userSpaceOnUse" x="155" y="72" width="61" height="34">
<path d="M212.935 72.8201H158.475C157.031 72.8201 155.861 73.9886 155.861 75.43V102.955C155.861 104.396 157.031 105.565 158.475 105.565H212.935C214.378 105.565 215.548 104.396 215.548 102.955V75.43C215.548 73.9886 214.378 72.8201 212.935 72.8201Z" fill="white"/>
</mask>
<g mask="url(#mask0_68_3444)">
<path d="M212.935 72.8201H158.475C157.031 72.8201 155.861 73.9886 155.861 75.43V102.955C155.861 104.396 157.031 105.565 158.475 105.565H212.935C214.378 105.565 215.548 104.396 215.548 102.955V75.43C215.548 73.9886 214.378 72.8201 212.935 72.8201Z" fill="#465164"/>
<path d="M209.474 75.7864H163.719C162.458 75.7864 161.436 76.8073 161.436 78.0667V100.309C161.436 101.569 162.458 102.589 163.719 102.589H209.474C210.735 102.589 211.757 101.569 211.757 100.309V78.0667C211.757 76.8073 210.735 75.7864 209.474 75.7864Z" fill="#FFCB6D"/>
<path d="M193.553 87.3663C195.239 88.364 195.239 90.003 193.553 91.0095L183.341 97.0667C181.655 98.0644 180.273 97.2805 180.273 95.3208V83.055C180.273 81.0953 181.655 80.3114 183.341 81.3091L193.553 87.3663Z" fill="#B84646"/>
<path opacity="0.3" d="M219.369 46.5557L139.115 126.706L150.499 138.075L230.752 57.9248L219.369 46.5557Z" fill="white"/>
<path opacity="0.3" d="M213.423 40.6131L133.17 120.763L136.79 124.379L217.044 44.2285L213.423 40.6131Z" fill="white"/>
</g>
<path d="M207.753 112.495C207.753 114.944 205.764 116.931 203.311 116.931C200.858 116.931 198.869 114.944 198.869 112.495V87.0544C198.869 84.6048 200.858 82.6184 203.311 82.6184C205.764 82.6184 207.753 84.6048 207.753 87.0544V112.495Z" fill="#FFC3AE"/>
<path d="M187.471 126.738V112.869C187.471 106.589 192.572 101.494 198.86 101.494C205.148 101.494 210.25 106.589 210.25 112.869C210.25 112.869 187.471 133.018 187.471 126.738Z" fill="#FFC3AE"/>
<mask id="mask1_68_3444" style="mask-type:luminance" maskUnits="userSpaceOnUse" x="230" y="74" width="102" height="95">
<path d="M259.428 76.6744L231.314 115.037C229.842 117.046 230.279 119.866 232.291 121.337L295.959 167.875C297.97 169.345 300.794 168.908 302.266 166.899L330.38 128.536C331.852 126.528 331.415 123.707 329.403 122.237L265.735 75.6992C263.724 74.229 260.9 74.6657 259.428 76.6744Z" fill="white"/>
</mask>
<g mask="url(#mask1_68_3444)">
<path d="M259.428 76.6742L231.314 115.037C229.842 117.046 230.279 119.866 232.291 121.336L295.959 167.874C297.97 169.344 300.794 168.908 302.266 166.899L330.38 128.536C331.852 126.527 331.415 123.707 329.403 122.237L265.735 75.699C263.724 74.2288 260.9 74.6654 259.428 76.6742Z" fill="#465164"/>
<path d="M262.337 84.4559L239.612 115.465C238.327 117.22 238.708 119.684 240.465 120.968L294.165 160.219C295.922 161.504 298.389 161.122 299.675 159.368L322.399 128.358C323.685 126.603 323.303 124.14 321.546 122.856L267.847 83.6041C266.09 82.3198 263.623 82.7012 262.337 84.4559Z" fill="white"/>
<path d="M280.667 99.3914L298.924 112.744" stroke="#B7D0DE" stroke-width="3" stroke-miterlimit="10" stroke-linecap="round"/>
<path d="M265.816 88.542L275.77 95.8106" stroke="#B7D0DE" stroke-width="3" stroke-miterlimit="10" stroke-linecap="round"/>
<path d="M282.807 109.894L294.661 118.561" stroke="#B7D0DE" stroke-width="3" stroke-miterlimit="10" stroke-linecap="round"/>
<path d="M261.553 94.3586L277.794 106.233" stroke="#B7D0DE" stroke-width="3" stroke-miterlimit="10" stroke-linecap="round"/>
<path d="M286.384 121.456L290.388 124.386" stroke="#B7D0DE" stroke-width="3" stroke-miterlimit="10" stroke-linecap="round"/>
<path d="M269.179 108.878L281.487 117.875" stroke="#B7D0DE" stroke-width="3" stroke-miterlimit="10" stroke-linecap="round"/>
<path d="M257.29 100.184L264.889 105.743" stroke="#B7D0DE" stroke-width="3" stroke-miterlimit="10" stroke-linecap="round"/>
<path d="M287.927 131.521L304.837 143.885" stroke="#B7D0DE" stroke-width="3" stroke-miterlimit="10" stroke-linecap="round"/>
<path d="M271.729 119.683L283.967 128.626" stroke="#B7D0DE" stroke-width="3" stroke-miterlimit="10" stroke-linecap="round"/>
<path d="M292.993 144.17L300.574 149.711" stroke="#B7D0DE" stroke-width="3" stroke-miterlimit="10" stroke-linecap="round"/>
<path d="M277.723 133L289.006 141.257" stroke="#B7D0DE" stroke-width="3" stroke-miterlimit="10" stroke-linecap="round"/>
<path d="M267.466 125.509L273.219 129.713" stroke="#B7D0DE" stroke-width="3" stroke-miterlimit="10" stroke-linecap="round"/>
<path d="M282.977 145.782L296.302 155.527" stroke="#B7D0DE" stroke-width="3" stroke-miterlimit="10" stroke-linecap="round"/>
<path d="M263.194 131.325L278.972 142.861" stroke="#B7D0DE" stroke-width="3" stroke-miterlimit="10" stroke-linecap="round"/>
<path d="M251.521 105.629L243.688 116.317C243.069 117.163 243.253 118.35 244.099 118.969L256.81 128.26C257.657 128.879 258.845 128.695 259.465 127.849L267.298 117.16C267.918 116.315 267.734 115.128 266.887 114.509L254.177 105.218C253.33 104.599 252.141 104.783 251.521 105.629Z" fill="#FFCB6D"/>
<path d="M302.642 116.179L294.809 126.867C294.189 127.713 294.373 128.9 295.22 129.519L307.931 138.81C308.777 139.429 309.966 139.245 310.586 138.399L318.419 127.711C319.038 126.865 318.854 125.678 318.008 125.059L305.297 115.768C304.45 115.149 303.262 115.333 302.642 116.179Z" fill="#FFCB6D"/>
<path opacity="0.3" d="M367.737 76.28L184.875 146.859L191.499 163.975L374.36 93.396L367.737 76.28Z" fill="white"/>
<path opacity="0.3" d="M362.893 63.7988L180.032 134.378L182.813 141.565L365.674 70.9858L362.893 63.7988Z" fill="white"/>
<path opacity="0.3" d="M375.943 97.5205L193.082 168.1L194.699 172.279L377.56 101.7L375.943 97.5205Z" fill="white"/>
</g>
<path d="M245.106 183.631C241.208 187.524 234.902 187.524 231.005 183.631C227.107 179.739 227.107 173.441 231.005 169.548L254.863 145.72C258.761 141.828 265.067 141.828 268.964 145.72C272.862 149.613 272.862 155.911 268.964 159.803L245.106 183.631Z" fill="#FFC3AE"/>
<path d="M257.824 148.838C256.808 151.065 254.168 152.045 251.938 151.029C249.708 150.014 248.727 147.377 249.744 145.15L255.158 133.659C256.174 131.432 258.814 130.453 261.044 131.468C263.274 132.484 264.255 135.12 263.238 137.347L257.824 148.838Z" fill="#FFC3AE"/>
<path d="M275.912 133.299L257.819 138.569C255.455 139.258 254.097 141.73 254.787 144.092L260.064 162.161C260.753 164.522 263.229 165.878 265.593 165.189L283.686 159.919C286.05 159.231 287.408 156.758 286.718 154.397L281.441 136.328C280.752 133.966 278.276 132.61 275.912 133.299Z" fill="#FFC3AE"/>
<path d="M266.209 131.504L259.555 131.005C257.102 130.844 254.997 132.706 254.837 135.147C254.676 137.596 256.54 139.699 258.984 139.859L261.642 140.064C261.705 139.939 261.767 139.805 261.838 139.681C262.766 137.944 264.746 134.238 266.209 131.512V131.504Z" fill="#FFC3AE"/>
<path d="M266.209 131.504L272.229 131.958C274.682 132.118 276.537 134.229 276.376 136.67C276.216 139.12 274.102 140.972 271.658 140.812L261.642 140.055C260.518 142.309 260.046 144.732 261.838 146.513C263.729 148.401 266.797 148.401 268.688 146.513L276.921 138.291" fill="#D8A798"/>
<path d="M276.376 136.67C276.537 134.22 274.673 132.118 272.229 131.958L266.209 131.504C264.746 134.229 262.766 137.935 261.838 139.672C261.767 139.797 261.705 139.93 261.642 140.055L271.658 140.812C274.111 140.972 276.216 139.111 276.376 136.67Z" fill="#D8A798"/>
<path d="M260.634 155.091C258.895 156.828 256.086 156.828 254.355 155.091C252.616 153.354 252.616 150.548 254.355 148.82L284.983 118.231C286.723 116.494 289.532 116.494 291.262 118.231C293.002 119.968 293.002 122.774 291.262 124.502L260.634 155.091Z" fill="#FFC3AE"/>
<path d="M111.551 194.044C114.2 198.863 120.256 200.636 125.09 197.99C129.916 195.345 131.691 189.297 129.042 184.469L112.827 154.913C110.178 150.094 104.122 148.321 99.2874 150.967C94.4622 153.613 92.6873 159.661 95.3363 164.489L111.551 194.044Z" fill="#FFC3AE"/>
<path d="M96.3439 159.465C99.3675 164.979 106.289 166.992 111.81 163.972C117.331 160.952 119.346 154.04 116.323 148.526L108.367 134.033C105.343 128.52 98.4221 126.506 92.9011 129.526C87.3802 132.546 85.3645 139.458 88.3881 144.972L96.3439 159.465Z" fill="#FFC3AE"/>
<path d="M108.456 140.625L91.189 135.592C89.1287 134.996 87.0149 135.37 85.3381 136.439C86.3995 136.83 87.336 137.579 87.9247 138.657L93.5169 148.847C94.8013 151.19 93.945 154.129 91.5993 155.421C89.2536 156.712 86.3103 155.848 85.017 153.506L80.7715 145.774L77.855 155.759C76.749 159.536 78.9253 163.491 82.707 164.596L99.9744 169.628C103.756 170.733 107.716 168.56 108.822 164.783L113.291 149.462C114.397 145.685 112.22 141.73 108.439 140.625H108.456Z" fill="#FFC3AE"/>
<path d="M91.6084 155.421C93.9541 154.138 94.8193 151.198 93.526 148.847L87.9337 138.656C87.3451 137.588 86.4086 136.83 85.3472 136.438C83.9469 137.338 82.8499 138.719 82.3504 140.438L80.7896 145.774L85.035 153.506C86.3194 155.848 89.2627 156.712 91.6173 155.421H91.6084Z" fill="#D8A798"/>
<path d="M100.456 143.796C98.1102 145.079 97.245 148.019 98.5383 150.37C99.8227 152.713 102.766 153.577 105.121 152.285L115.324 146.7C114.182 144.625 114.281 144.803 112.996 142.46L117.242 140.135C115.957 137.793 113.014 136.929 110.659 138.22L100.456 143.805V143.796Z" fill="#D8A798"/>
<mask id="mask2_68_3444" style="mask-type:luminance" maskUnits="userSpaceOnUse" x="68" y="83" width="64" height="71">
<path d="M101.495 83.6026L69.5032 101.109C68.2375 101.802 67.7737 103.388 68.4672 104.652L94.6369 152.351C95.3304 153.615 96.9187 154.079 98.1844 153.386L130.176 135.879C131.442 135.187 131.905 133.6 131.212 132.336L105.042 84.6373C104.349 83.3732 102.76 82.9099 101.495 83.6026Z" fill="white"/>
</mask>
<g mask="url(#mask2_68_3444)">
<path d="M101.495 83.6023L69.5032 101.109C68.2375 101.802 67.7737 103.388 68.4672 104.652L94.6369 152.351C95.3304 153.615 96.9187 154.078 98.1844 153.386L130.176 135.879C131.442 135.186 131.905 133.6 131.212 132.336L105.042 84.6371C104.349 83.3729 102.76 82.9097 101.495 83.6023Z" fill="#465164"/>
<path d="M104.095 89.0855C103.488 87.9809 102.106 87.5801 101 88.1858L73.6449 103.16C72.5389 103.765 72.1375 105.146 72.744 106.251L90.4128 138.443L121.772 121.278L104.104 89.0855H104.095Z" fill="#A7DC94"/>
<path d="M97.8246 147.226L125.18 132.252C126.286 131.646 126.687 130.265 126.08 129.161L121.755 121.278L90.395 138.443L94.7208 146.326C95.3273 147.43 96.7097 147.831 97.8157 147.226H97.8246Z" fill="white"/>
<path d="M94.9111 95.5499L77.7499 104.941C76.8859 105.414 76.5693 106.497 77.0427 107.359L81.3543 115.218C81.8277 116.081 82.9119 116.397 83.7759 115.924L100.937 106.533C101.801 106.06 102.118 104.978 101.644 104.115L97.3326 96.2562C96.8592 95.3933 95.7751 95.0771 94.9111 95.5499Z" fill="white"/>
<path d="M107.551 105.835L90.3901 115.226C89.5261 115.699 89.2095 116.782 89.6829 117.645L91.4229 120.816C91.8963 121.679 92.9805 121.995 93.8445 121.523L111.006 112.131C111.87 111.659 112.186 110.576 111.713 109.713L109.973 106.541C109.499 105.678 108.415 105.362 107.551 105.835Z" fill="white"/>
<path d="M107.02 117.608L89.8593 127C88.9953 127.472 88.6787 128.555 89.1521 129.418L90.8922 132.59C91.3656 133.453 92.4497 133.769 93.3137 133.296L110.475 123.905C111.339 123.432 111.655 122.349 111.182 121.486L109.442 118.315C108.969 117.452 107.884 117.136 107.02 117.608Z" fill="white"/>
<path d="M80.5663 110.526C80.9766 111.283 80.7001 112.227 79.9509 112.646C79.2017 113.065 78.2474 112.78 77.8282 112.031C77.4179 111.274 77.6944 110.33 78.4436 109.911C79.2017 109.502 80.1471 109.778 80.5663 110.526Z" fill="white"/>
<path d="M112.211 107.364C112.622 108.121 112.345 109.065 111.596 109.484C110.847 109.903 109.892 109.618 109.473 108.869C109.063 108.112 109.339 107.168 110.089 106.749C110.847 106.34 111.792 106.616 112.211 107.364Z" fill="white"/>
<path d="M91.394 130.248C91.8043 131.005 91.5278 131.949 90.7786 132.368C90.0205 132.777 89.075 132.501 88.6558 131.753C88.2366 131.005 88.522 130.052 89.2713 129.633C90.0294 129.223 90.9748 129.499 91.394 130.248Z" fill="white"/>
<path d="M92.0005 101.164L94.5157 99.7925" stroke="#B7D0DE" stroke-width="3" stroke-miterlimit="10" stroke-linecap="round"/>
<path d="M80.9585 107.212L88.3078 103.195" stroke="#B7D0DE" stroke-width="3" stroke-miterlimit="10" stroke-linecap="round"/>
<path d="M105.201 111.203L107.707 109.831" stroke="#B7D0DE" stroke-width="3" stroke-miterlimit="10" stroke-linecap="round"/>
<path d="M93.4541 117.634L101.026 113.483" stroke="#B7D0DE" stroke-width="3" stroke-miterlimit="10" stroke-linecap="round"/>
<path d="M104.791 122.917L107.297 121.545" stroke="#B7D0DE" stroke-width="3" stroke-miterlimit="10" stroke-linecap="round"/>
<path d="M97.5127 126.898L100.866 125.063" stroke="#B7D0DE" stroke-width="3" stroke-miterlimit="10" stroke-linecap="round"/>
<path d="M105.834 139.066L114.584 134.274" stroke="#B7D0DE" stroke-width="3" stroke-miterlimit="10" stroke-linecap="round"/>
<path d="M92.8569 129.446L93.7756 128.947" stroke="#B7D0DE" stroke-width="3" stroke-miterlimit="10" stroke-linecap="round"/>
<path d="M89.9492 108.192L97.0042 104.335" stroke="#B7D0DE" stroke-width="3" stroke-miterlimit="10" stroke-linecap="round"/>
<path d="M83.4473 111.755L86.2211 110.241" stroke="#B7D0DE" stroke-width="3" stroke-miterlimit="10" stroke-linecap="round"/>
<path d="M95.8358 138.888C96.1836 139.521 95.9517 140.313 95.3185 140.661C94.6852 141.008 93.8914 140.777 93.5436 140.144C93.1957 139.512 93.4276 138.719 94.0609 138.371C94.6941 138.024 95.4879 138.256 95.8358 138.888Z" fill="#B7D0DE"/>
<path d="M100.215 136.492C100.563 137.124 100.331 137.917 99.6978 138.264C99.0646 138.612 98.2708 138.38 97.9229 137.748C97.5751 137.115 97.807 136.323 98.4403 135.975C99.0735 135.628 99.8673 135.859 100.215 136.492Z" fill="#B7D0DE"/>
<path d="M104.594 134.096C104.942 134.728 104.71 135.521 104.077 135.868C103.444 136.216 102.65 135.984 102.302 135.352C101.954 134.719 102.186 133.926 102.819 133.579C103.452 133.232 104.246 133.463 104.594 134.096Z" fill="#B7D0DE"/>
<path d="M108.973 131.7C109.321 132.332 109.089 133.125 108.456 133.472C107.823 133.82 107.029 133.588 106.681 132.956C106.333 132.323 106.565 131.53 107.199 131.183C107.832 130.836 108.626 131.067 108.973 131.7Z" fill="#B7D0DE"/>
<path d="M113.344 129.303C113.692 129.936 113.46 130.729 112.827 131.076C112.193 131.423 111.4 131.192 111.052 130.559C110.704 129.927 110.936 129.134 111.569 128.787C112.202 128.439 112.996 128.671 113.344 129.303Z" fill="#B7D0DE"/>
<path d="M117.723 126.907C118.071 127.54 117.839 128.332 117.206 128.68C116.573 129.027 115.779 128.796 115.431 128.163C115.083 127.531 115.315 126.738 115.949 126.391C116.582 126.043 117.376 126.275 117.723 126.907Z" fill="#B7D0DE"/>
<path d="M122.102 124.511C122.45 125.144 122.218 125.936 121.585 126.284C120.952 126.631 120.158 126.4 119.81 125.767C119.462 125.135 119.694 124.342 120.327 123.995C120.961 123.647 121.755 123.879 122.102 124.511Z" fill="#B7D0DE"/>
<path d="M98.2259 143.226C98.5737 143.858 98.3419 144.651 97.7086 144.999C97.0753 145.346 96.2815 145.114 95.9337 144.482C95.5858 143.85 95.8177 143.057 96.451 142.709C97.0843 142.362 97.8781 142.594 98.2259 143.226Z" fill="#B7D0DE"/>
<path d="M102.597 140.83C102.944 141.462 102.712 142.255 102.079 142.603C101.446 142.95 100.652 142.718 100.304 142.086C99.9564 141.454 100.188 140.661 100.822 140.313C101.455 139.966 102.249 140.198 102.597 140.83Z" fill="#B7D0DE"/>
<path d="M106.976 138.434C107.324 139.066 107.092 139.859 106.459 140.206C105.825 140.554 105.032 140.322 104.684 139.69C104.336 139.057 104.568 138.265 105.201 137.917C105.834 137.57 106.628 137.801 106.976 138.434Z" fill="#B7D0DE"/>
<path d="M111.355 136.047C111.703 136.679 111.471 137.472 110.837 137.819C110.204 138.167 109.41 137.935 109.063 137.303C108.715 136.67 108.947 135.877 109.58 135.53C110.213 135.183 111.007 135.414 111.355 136.047Z" fill="#B7D0DE"/>
<path d="M115.734 133.65C116.082 134.283 115.85 135.076 115.217 135.423C114.584 135.77 113.79 135.539 113.442 134.906C113.094 134.274 113.326 133.481 113.959 133.134C114.593 132.786 115.386 133.018 115.734 133.65Z" fill="#B7D0DE"/>
<path d="M120.114 131.254C120.461 131.887 120.23 132.679 119.596 133.027C118.963 133.374 118.169 133.142 117.821 132.51C117.474 131.878 117.705 131.085 118.339 130.737C118.972 130.39 119.766 130.622 120.114 131.254Z" fill="#B7D0DE"/>
<path d="M124.484 128.858C124.832 129.491 124.6 130.283 123.966 130.631C123.333 130.978 122.539 130.747 122.191 130.114C121.844 129.482 122.076 128.689 122.709 128.341C123.342 127.994 124.136 128.226 124.484 128.858Z" fill="#B7D0DE"/>
<path opacity="0.3" d="M112.333 65.588L80.5161 174.393L95.9696 178.9L127.786 70.0953L112.333 65.588Z" fill="white"/>
<path opacity="0.3" d="M104.247 63.2267L72.4307 172.031L77.345 173.465L109.161 64.6601L104.247 63.2267Z" fill="white"/>
</g>
<path d="M110.454 161.496L103.783 149.337C100.759 143.823 93.8379 141.81 88.3169 144.83C82.796 147.849 90.8321 149.417 93.8557 154.922C93.8557 154.922 113.478 167.01 110.454 161.496Z" fill="#FFC3AE"/>
<path d="M89.9493 156.062C91.1266 158.209 93.8291 159.002 95.9786 157.817C98.1281 156.641 98.9219 153.942 97.7356 151.795L85.4986 129.491C84.3213 127.344 81.6188 126.551 79.4693 127.736C77.3198 128.912 76.526 131.611 77.7122 133.757L89.9493 156.062Z" fill="#FFC3AE"/>
<path d="M177.695 153.122C181.896 156.676 182.413 162.965 178.855 167.161C175.296 171.356 168.999 171.873 164.798 168.319L139.058 146.522C134.857 142.968 134.339 136.679 137.898 132.483C141.457 128.288 147.754 127.771 151.955 131.325L177.695 153.122Z" fill="#FFC3AE"/>
<path d="M141.93 143.306C144.24 144.135 145.435 146.682 144.597 148.989C143.767 151.296 141.216 152.49 138.906 151.653L126.999 147.208C124.689 146.379 123.494 143.832 124.332 141.525C125.162 139.218 127.713 138.024 130.023 138.861L141.93 143.306Z" fill="#FFC3AE"/>
<path d="M145.109 114.086L127.511 120.822C125.211 121.703 124.061 124.278 124.943 126.575L131.684 144.142C132.566 146.439 135.144 147.587 137.444 146.707L155.042 139.971C157.342 139.091 158.492 136.515 157.61 134.218L150.869 116.651C149.987 114.354 147.409 113.206 145.109 114.086Z" fill="#FFC3AE"/>
<path d="M123.94 136.385L123.985 143.048C124.029 145.497 126.054 147.448 128.507 147.404C130.959 147.359 132.913 145.337 132.868 142.887L132.85 140.224C132.716 140.171 132.583 140.117 132.449 140.064C130.638 139.28 126.776 137.614 123.94 136.385Z" fill="#FFC3AE"/>
<path d="M123.94 136.385L123.904 130.354C123.859 127.905 125.813 125.883 128.266 125.838C130.718 125.794 132.743 127.744 132.788 130.194L132.85 140.233C135.187 141.168 137.639 141.436 139.281 139.511C141.011 137.472 140.761 134.416 138.719 132.688L129.844 125.17" fill="#D8A798"/>
<path d="M128.266 125.838C125.813 125.883 123.859 127.905 123.904 130.354L123.94 136.385C126.785 137.614 130.638 139.289 132.449 140.064C132.582 140.117 132.716 140.171 132.85 140.224L132.788 130.185C132.743 127.736 130.718 125.785 128.266 125.829V125.838Z" fill="#D8A798"/>
<path d="M147.941 140.001C149.814 141.587 150.046 144.384 148.459 146.255C146.871 148.125 144.07 148.357 142.197 146.771L109.161 118.801C107.288 117.216 107.056 114.419 108.644 112.548C110.231 110.677 113.032 110.446 114.905 112.031L147.941 140.001Z" fill="#FFC3AE"/>
<path d="M201.827 341.837C212.664 336.726 217.3 323.808 212.182 312.985C207.064 302.162 194.13 297.532 183.293 302.644C172.456 307.755 167.82 320.672 172.938 331.495C178.056 342.318 190.99 346.949 201.827 341.837Z" fill="#2E9BC6"/>
<path d="M302.875 212.064C274.646 183.872 235.643 166.43 192.563 166.43C149.484 166.43 110.481 183.872 82.252 212.064" stroke="#2E9BC6" stroke-width="44" stroke-linecap="round" stroke-linejoin="round"/>
<path d="M248.665 266.205C234.305 251.864 214.469 242.992 192.564 242.992C170.658 242.992 150.822 251.864 136.462 266.205" stroke="#2E9BC6" stroke-width="42" stroke-linecap="round" stroke-linejoin="round"/>
<path d="M330.479 111.313L330.499 95.2349C330.501 93.4712 331.939 92.0388 333.705 92.0409L368.793 92.0837C370.559 92.0859 371.993 93.5218 371.991 95.2855L371.971 111.364C371.969 113.127 370.531 114.56 368.765 114.558L333.678 114.515C331.912 114.513 330.477 113.077 330.479 111.313Z" fill="#B7D0DE"/>
<path d="M333.262 103.266C333.262 104.807 332.005 106.063 330.462 106.054C328.919 106.054 327.661 104.798 327.67 103.257C327.67 101.716 328.928 100.46 330.471 100.469C332.014 100.469 333.271 101.725 333.262 103.266Z" fill="#B7D0DE"/>
<path d="M357.254 97.8328L364.443 97.8417" stroke="white" stroke-width="3" stroke-miterlimit="10" stroke-linecap="round"/>
<path d="M336.714 97.8059L351.743 97.8237" stroke="white" stroke-width="3" stroke-miterlimit="10" stroke-linecap="round"/>
<path d="M344.233 103.605L354.775 103.623" stroke="white" stroke-width="3" stroke-miterlimit="10" stroke-linecap="round"/>
<path d="M336.723 103.587L339.309 103.596" stroke="white" stroke-width="3" stroke-miterlimit="10" stroke-linecap="round"/>
<path d="M359.306 103.623H364.452" stroke="white" stroke-width="3" stroke-miterlimit="10" stroke-linecap="round"/>
<path d="M348.425 109.386L364.452 109.404" stroke="white" stroke-width="3" stroke-miterlimit="10" stroke-linecap="round"/>
<path d="M336.723 109.368L342.681 109.377" stroke="white" stroke-width="3" stroke-miterlimit="10" stroke-linecap="round"/>
<path d="M374.674 91.4102C375.646 93.3432 374.879 95.6948 372.944 96.6658C371.008 97.6456 368.653 96.8706 367.681 94.9377C366.709 93.0047 367.476 90.6531 369.412 89.6822C371.347 88.7023 373.702 89.4773 374.674 91.4102Z" fill="#FF7171"/>
</g>
<defs>
<clipPath id="clip0_68_3444">
<rect width="387" height="361" fill="white"/>
</clipPath>
</defs>
</svg>
