<svg width="60" height="60" viewBox="0 0 60 60" fill="none" xmlns="http://www.w3.org/2000/svg">
  <!-- Background circle -->
  <circle cx="30" cy="30" r="30" fill="#E6F1FF"/>
  
  <!-- Calendar outline -->
  <rect x="12" y="14" width="32" height="32" rx="2" fill="white" stroke="#0066CC" stroke-width="2"/>
  
  <!-- Calendar top bar -->
  <rect x="12" y="14" width="32" height="6" fill="#0066CC"/>
  
  <!-- Calendar hangers -->
  <rect x="18" y="11" width="2" height="6" rx="1" fill="#0066CC"/>
  <rect x="36" y="11" width="2" height="6" rx="1" fill="#0066CC"/>
  
  <!-- Calendar grid -->
  <line x1="12" y1="27" x2="44" y2="27" stroke="#0066CC" stroke-opacity="0.3"/>
  <line x1="12" y1="34" x2="44" y2="34" stroke="#0066CC" stroke-opacity="0.3"/>
  <line x1="20" y1="20" x2="20" y2="46" stroke="#0066CC" stroke-opacity="0.3"/>
  <line x1="28" y1="20" x2="28" y2="46" stroke="#0066CC" stroke-opacity="0.3"/>
  <line x1="36" y1="20" x2="36" y2="46" stroke="#0066CC" stroke-opacity="0.3"/>
  
  <!-- Syringe -->
  <path d="M50 20L44 26L34 16L40 10L50 20Z" fill="#4F94EF"/>
  <rect x="32" y="18" width="14" height="2" transform="rotate(-45 32 18)" fill="#0066CC"/>
  <path d="M36 30L32 26L42 16L46 20L36 30Z" fill="white" stroke="#0066CC"/>
  
  <!-- Calendar checkmarks -->
  <path d="M16 31L18 33L22 29" stroke="#0066CC" stroke-width="1.5" stroke-linecap="round" stroke-linejoin="round"/>
  <path d="M24 24L26 26L30 22" stroke="#0066CC" stroke-width="1.5" stroke-linecap="round" stroke-linejoin="round"/>
  <path d="M32 38L34 40L38 36" stroke="#0066CC" stroke-width="1.5" stroke-linecap="round" stroke-linejoin="round"/>
</svg> 