<?xml version="1.0" encoding="UTF-8"?>
<svg width="320" height="650" viewBox="0 0 320 650" fill="none" xmlns="http://www.w3.org/2000/svg">
  <!-- Background -->
  <rect width="320" height="650" fill="#F9FBFF"/>
  
  <!-- Header Bar -->
  <rect y="0" width="320" height="60" fill="#0062FF"/>
  <rect x="20" y="20" width="120" height="20" rx="5" fill="#4C8DFF"/>
  <circle cx="280" cy="30" r="15" fill="#4C8DFF"/>
  <circle cx="240" cy="30" r="15" fill="#4C8DFF"/>
  
  <!-- Left Menu Section -->
  <rect x="20" y="80" width="80" height="20" rx="5" fill="#0062FF"/>
  <rect x="20" y="110" width="80" height="12" rx="3" fill="#E6EFFF"/>
  <rect x="20" y="130" width="80" height="12" rx="3" fill="#E6EFFF"/>
  <rect x="20" y="150" width="80" height="12" rx="3" fill="#E6EFFF"/>
  <rect x="20" y="170" width="80" height="12" rx="3" fill="#E6EFFF"/>
  <rect x="20" y="190" width="80" height="12" rx="3" fill="#E6EFFF"/>
  
  <!-- Paw print decoration -->
  <circle cx="30" cy="220" r="5" fill="#FFD8C6" opacity="0.8"/>
  <circle cx="40" cy="225" r="5" fill="#FFD8C6" opacity="0.8"/>
  <circle cx="20" cy="225" r="5" fill="#FFD8C6" opacity="0.8"/>
  <circle cx="30" cy="235" r="7" fill="#FFD8C6" opacity="0.8"/>
  
  <!-- Middle Section (Notes or Records) -->
  <rect x="120" y="80" width="80" height="20" rx="5" fill="#0062FF"/>
  <rect x="120" y="110" width="150" height="1" stroke="#E0E0E0"/>
  <rect x="120" y="130" width="150" height="1" stroke="#E0E0E0"/>
  <rect x="120" y="150" width="150" height="1" stroke="#E0E0E0"/>
  <rect x="120" y="170" width="150" height="1" stroke="#E0E0E0"/>
  <rect x="120" y="190" width="150" height="1" stroke="#E0E0E0"/>
  
  <!-- Tasks or Items Section -->
  <rect x="120" y="230" width="80" height="20" rx="5" fill="#0062FF"/>
  
  <!-- Task item 1 -->
  <rect x="170" y="260" width="8" height="8" rx="4" fill="#FF9800"/>
  <rect x="185" y="260" width="60" height="5" rx="2" fill="#333333"/>
  <rect x="185" y="270" width="35" height="3" rx="1" fill="#777777"/>
  
  <!-- Task item 2 -->
  <rect x="170" y="290" width="8" height="8" rx="4" fill="#4285F4"/>
  <rect x="185" y="290" width="60" height="5" rx="2" fill="#333333"/>
  <rect x="185" y="300" width="35" height="3" rx="1" fill="#777777"/>
  
  <!-- Right Section (Chart) -->
  <rect x="290" y="80" width="80" height="20" rx="5" fill="#0062FF"/>
  
  <!-- Line chart -->
  <polyline points="290,180 310,160 330,170 350,140 370,150 390,120" stroke="#0062FF" stroke-width="2" fill="none"/>
  <circle cx="310" cy="160" r="3" fill="#0062FF"/>
  <circle cx="330" cy="170" r="3" fill="#0062FF"/>
  <circle cx="350" cy="140" r="3" fill="#0062FF"/>
  <circle cx="370" cy="150" r="3" fill="#0062FF"/>
  <circle cx="390" cy="120" r="3" fill="#0062FF"/>
  
  <!-- Colored info bars -->
  <rect x="290" y="220" width="80" height="8" rx="4" fill="#0062FF"/>
  <rect x="290" y="240" width="60" height="8" rx="4" fill="#4CAF50"/>
  <rect x="290" y="260" width="70" height="8" rx="4" fill="#9C27B0"/>
  <rect x="290" y="280" width="40" height="8" rx="4" fill="#FF5722"/>
  
  <!-- Color indicators -->
  <rect x="290" y="220" width="80" height="8" rx="4" fill="#0062FF"/>
  <rect x="290" y="240" width="60" height="8" rx="4" fill="#4CAF50"/>
  <rect x="290" y="260" width="70" height="8" rx="4" fill="#9C27B0"/>
  <rect x="290" y="280" width="40" height="8" rx="4" fill="#FF5722"/>
  
  <!-- Blue dotted decorations -->
  <circle cx="440" cy="280" r="15" fill="#E6EFFF" opacity="0.5"/>
  <circle cx="450" cy="290" r="10" fill="#E6EFFF" opacity="0.5"/>
  <circle cx="460" cy="270" r="5" fill="#E6EFFF" opacity="0.5"/>
  <circle cx="430" cy="260" r="8" fill="#E6EFFF" opacity="0.5"/>
  
  <!-- Additional UI elements -->
  <rect x="20" y="350" width="280" height="120" rx="10" fill="#FFFFFF" stroke="#E6EFFF" stroke-width="2"/>
  <rect x="40" y="370" width="100" height="15" rx="5" fill="#0062FF"/>
  <rect x="40" y="395" width="240" height="2" rx="1" fill="#E0E0E0"/>
  <rect x="40" y="415" width="240" height="2" rx="1" fill="#E0E0E0"/>
  <rect x="40" y="435" width="240" height="2" rx="1" fill="#E0E0E0"/>
  
  <!-- Bottom Navigation -->
  <rect x="0" y="600" width="320" height="50" rx="10" fill="#FFFFFF" stroke="#E6EFFF" stroke-width="1"/>
  <circle cx="60" cy="625" r="15" fill="#F5F5F5"/>
  <circle cx="160" cy="625" r="15" fill="#0062FF"/>
  <circle cx="260" cy="625" r="15" fill="#F5F5F5"/>
</svg> 