<svg width="600" height="400" viewBox="0 0 600 400" fill="none" xmlns="http://www.w3.org/2000/svg">
  <g clip-path="url(#clip0_1234_5679)">
    <!-- Background -->
    <path d="M0 0H600V400H0V0Z" fill="#F0F7FF"/>
    
    <!-- Background Blob -->
    <path d="M550 150C600 200 580 320 500 380C420 440 280 400 180 350C80 300 20 200 80 120C140 40 260 50 380 70C500 90 500 100 550 150Z" fill="#DEEFFF"/>
    
    <!-- Hands holding phone -->
    <path d="M350 320C350 320 390 350 430 370C470 390 520 400 520 400L520 480L320 480L320 400C320 400 370 390 380 370C390 350 350 320 350 320Z" fill="#FFC3A0" transform="translate(0, -80)"/>
    <path d="M380 390C380 390 390 400 400 400C410 400 420 390 420 390" stroke="#AA5A00" stroke-width="2" stroke-linecap="round" transform="translate(0, -80)"/>
    
    <!-- Smartphone -->
    <rect x="200" y="120" width="200" height="320" rx="20" fill="#333"/>
    <rect x="220" y="150" width="160" height="260" rx="5" fill="#F5F5F5"/>
    
    <!-- Notification bubble 1 -->
    <rect x="240" y="170" width="120" height="80" rx="10" fill="#3F51B5"/>
    <circle cx="270" cy="190" r="15" fill="#FFF"/>
    <rect x="290" y="180" width="60" height="5" rx="2" fill="#FFF"/>
    <rect x="290" y="195" width="40" height="5" rx="2" fill="#FFF"/>
    <rect x="250" y="220" width="100" height="20" rx="5" fill="#2196F3"/>
    <text x="300" y="235" font-family="Arial" font-size="12" fill="white" text-anchor="middle">Detayı incele</text>
    
    <!-- Notification bubble 2 -->
    <rect x="240" y="260" width="120" height="80" rx="10" fill="#4CAF50"/>
    <circle cx="270" cy="280" r="15" fill="#FFF"/>
    <rect x="290" y="270" width="60" height="5" rx="2" fill="#FFF"/>
    <rect x="290" y="285" width="40" height="5" rx="2" fill="#FFF"/>
    <rect x="250" y="310" width="100" height="20" rx="5" fill="#00796B"/>
    <text x="300" y="325" font-family="Arial" font-size="12" fill="white" text-anchor="middle">Hatırlatıcı</text>
    
    <!-- Notification bubble 3 -->
    <rect x="240" y="350" width="120" height="50" rx="10" fill="#673AB7"/>
    <rect x="290" y="360" width="60" height="5" rx="2" fill="#FFF"/>
    <rect x="290" y="375" width="40" height="5" rx="2" fill="#FFF"/>
    <circle cx="270" cy="370" r="15" fill="#FFF"/>
    
    <!-- Notification icons -->
    <path d="M266 187L274 195L282 187" stroke="#3F51B5" stroke-width="2" stroke-linecap="round" stroke-linejoin="round"/>
    <path d="M270 195L270 185" stroke="#3F51B5" stroke-width="2" stroke-linecap="round"/>
    
    <path d="M270 280C265 280 265 275 270 275C275 275 275 280 270 280Z" fill="#4CAF50"/>
    <path d="M268 277L270 279L274 275" stroke="#4CAF50" stroke-width="2" stroke-linecap="round" stroke-linejoin="round"/>
    
    <path d="M270 370C265 370 265 365 270 365C275 365 275 370 270 370Z" fill="#673AB7"/>
    <path d="M267 370L270 367L273 370" stroke="#673AB7" stroke-width="2" stroke-linecap="round" stroke-linejoin="round"/>
    
    <!-- Phone button -->
    <circle cx="300" cy="430" r="10" stroke="#333" stroke-width="2"/>
    
    <!-- Flying notification 1 -->
    <g>
      <rect x="100" y="150" width="80" height="50" rx="8" fill="#2196F3" opacity="0.9"/>
      <text x="140" y="180" font-family="Arial" font-size="10" fill="white" text-anchor="middle">Aşı Hatırlatıcı</text>
      <animateTransform attributeName="transform" type="translate" from="0,0" to="20,-20" dur="4s" repeatCount="indefinite" />
      <animate attributeName="opacity" values="0.9;0.4;0.9" dur="4s" repeatCount="indefinite" />
    </g>
    
    <!-- Flying notification 2 -->
    <g>
      <rect x="450" y="200" width="80" height="50" rx="8" fill="#FF5722" opacity="0.9"/>
      <text x="490" y="230" font-family="Arial" font-size="10" fill="white" text-anchor="middle">Kontrol Zamanı</text>
      <animateTransform attributeName="transform" type="translate" from="0,0" to="-20,-15" dur="5s" repeatCount="indefinite" />
      <animate attributeName="opacity" values="0.9;0.5;0.9" dur="5s" repeatCount="indefinite" />
    </g>
    
    <!-- Flying notification 3 -->
    <g>
      <rect x="400" y="100" width="80" height="50" rx="8" fill="#673AB7" opacity="0.9"/>
      <text x="440" y="130" font-family="Arial" font-size="10" fill="white" text-anchor="middle">Randevu</text>
      <animateTransform attributeName="transform" type="translate" from="0,0" to="-15,-25" dur="6s" repeatCount="indefinite" />
      <animate attributeName="opacity" values="0.9;0.6;0.9" dur="6s" repeatCount="indefinite" />
    </g>
    
    <!-- Small Decorative Elements -->
    <circle cx="80" cy="80" r="10" fill="#3F51B5" opacity="0.5"/>
    <circle cx="530" cy="300" r="8" fill="#673AB7" opacity="0.5"/>
    <circle cx="120" cy="350" r="12" fill="#2196F3" opacity="0.5"/>
    <circle cx="470" cy="70" r="15" fill="#03A9F4" opacity="0.5"/>
    
    <!-- Sparkles -->
    <path d="M100 250L105 245L110 250L105 255L100 250Z" fill="#FFC107">
      <animate attributeName="opacity" values="1;0.3;1" dur="2s" repeatCount="indefinite" />
    </path>
    
    <path d="M480 150L485 145L490 150L485 155L480 150Z" fill="#FFC107">
      <animate attributeName="opacity" values="1;0.5;1" dur="3s" repeatCount="indefinite" />
    </path>
    
    <path d="M400 300L405 295L410 300L405 305L400 300Z" fill="#FFC107">
      <animate attributeName="opacity" values="1;0.4;1" dur="2.5s" repeatCount="indefinite" />
    </path>
  </g>
  <defs>
    <clipPath id="clip0_1234_5679">
      <rect width="600" height="400" fill="white"/>
    </clipPath>
  </defs>
</svg> 