<svg width="60" height="60" viewBox="0 0 60 60" fill="none" xmlns="http://www.w3.org/2000/svg">
  <!-- Background circle -->
  <circle cx="30" cy="30" r="30" fill="#E6F1FF"/>
  
  <!-- First person -->
  <circle cx="20" cy="20" r="6" fill="#0066CC"/>
  <path d="M12 42C12 36.4772 16.4772 32 22 32H24C29.5228 32 34 36.4772 34 42V44H12V42Z" fill="#0066CC" opacity="0.7"/>
  
  <!-- Second person -->
  <circle cx="40" cy="20" r="6" fill="#4F94EF"/>
  <path d="M32 42C32 36.4772 36.4772 32 42 32H44C49.5228 32 54 36.4772 54 42V44H32V42Z" fill="#4F94EF" opacity="0.7"/>
  
  <!-- Calendar elements -->
  <rect x="25" y="38" width="16" height="16" rx="2" fill="white" stroke="#0066CC" stroke-width="1.5"/>
  <line x1="28" y1="42" x2="38" y2="42" stroke="#0066CC" stroke-width="1.5"/>
  <line x1="28" y1="46" x2="38" y2="46" stroke="#0066CC" stroke-width="1.5"/>
  <line x1="28" y1="50" x2="33" y2="50" stroke="#0066CC" stroke-width="1.5"/>
</svg> 