<svg width="60" height="60" viewBox="0 0 60 60" fill="none" xmlns="http://www.w3.org/2000/svg">
  <!-- Background circle -->
  <circle cx="30" cy="30" r="30" fill="#E6F1FF"/>
  
  <!-- Calculator body -->
  <rect x="15" y="10" width="30" height="40" rx="3" fill="white" stroke="#0066CC" stroke-width="2"/>
  
  <!-- Calculator display -->
  <rect x="18" y="14" width="24" height="10" rx="2" fill="#0066CC" opacity="0.1"/>
  <rect x="36" y="18" width="4" height="2" rx="1" fill="#0066CC"/>
  
  <!-- Calculator buttons row 1 -->
  <rect x="18" y="28" width="5" height="5" rx="1" fill="#4F94EF" opacity="0.8"/>
  <rect x="25" y="28" width="5" height="5" rx="1" fill="#4F94EF" opacity="0.8"/>
  <rect x="32" y="28" width="5" height="5" rx="1" fill="#4F94EF" opacity="0.8"/>
  <rect x="39" y="28" width="5" height="12" rx="1" fill="#FF6B00"/>
  
  <!-- Calculator buttons row 2 -->
  <rect x="18" y="35" width="5" height="5" rx="1" fill="#4F94EF" opacity="0.8"/>
  <rect x="25" y="35" width="5" height="5" rx="1" fill="#4F94EF" opacity="0.8"/>
  <rect x="32" y="35" width="5" height="5" rx="1" fill="#4F94EF" opacity="0.8"/>
  
  <!-- Calculator buttons row 3 -->
  <rect x="18" y="42" width="5" height="5" rx="1" fill="#4F94EF" opacity="0.8"/>
  <rect x="25" y="42" width="12" height="5" rx="1" fill="#0066CC"/>
  <rect x="39" y="42" width="5" height="5" rx="1" fill="#4F94EF" opacity="0.8"/>
  
  <!-- Dollar symbol -->
  <path d="M27 18.5V21.5" stroke="#0066CC" stroke-width="1.5" stroke-linecap="round"/>
  <path d="M33 18.5V21.5" stroke="#0066CC" stroke-width="1.5" stroke-linecap="round"/>
  <path d="M27 20H33" stroke="#0066CC" stroke-width="1.5" stroke-linecap="round"/>
</svg> 