<?xml version="1.0" encoding="UTF-8"?>
<svg width="320" height="650" viewBox="0 0 320 650" fill="none" xmlns="http://www.w3.org/2000/svg">
  <!-- Background -->
  <rect width="320" height="650" fill="#F9FBFF"/>
  
  <!-- Header Bar -->
  <rect y="0" width="320" height="60" fill="#0062FF"/>
  <rect x="20" y="20" width="120" height="20" rx="5" fill="#4C8DFF"/>
  <circle cx="280" cy="30" r="15" fill="#4C8DFF"/>
  <circle cx="240" cy="30" r="15" fill="#4C8DFF"/>
  
  <!-- Search Bar -->
  <rect x="20" y="80" width="280" height="40" rx="20" fill="white" stroke="#E6EFFF" stroke-width="2"/>
  <circle cx="45" cy="100" r="12" fill="#E6EFFF"/>
  <rect x="65" y="95" width="150" height="10" rx="5" fill="#E6EFFF"/>
  
  <!-- Filter Pills -->
  <rect x="20" y="140" width="70" height="30" rx="15" fill="#0062FF"/>
  <rect x="100" y="140" width="70" height="30" rx="15" fill="#E6EFFF"/>
  <rect x="180" y="140" width="70" height="30" rx="15" fill="#E6EFFF"/>
  
  <!-- Records List -->
  <!-- Record 1 -->
  <rect x="20" y="190" width="280" height="80" rx="10" fill="white" stroke="#E6EFFF" stroke-width="2"/>
  <circle cx="50" cy="220" r="20" fill="#0062FF" opacity="0.1"/>
  <path d="M45 220 L50 225 L55 220 L50 215 Z" fill="#0062FF" stroke="#0062FF" stroke-width="2"/>
  <rect x="80" y="205" width="100" height="12" rx="6" fill="#333333"/>
  <rect x="80" y="225" width="70" height="8" rx="4" fill="#777777"/>
  <rect x="255" y="215" width="30" height="10" rx="5" fill="#0062FF"/>
  
  <!-- Record 2 -->
  <rect x="20" y="280" width="280" height="80" rx="10" fill="white" stroke="#E6EFFF" stroke-width="2"/>
  <circle cx="50" cy="310" r="20" fill="#FF9800" opacity="0.1"/>
  <path d="M45 310 L50 315 L55 310 L50 305 Z" fill="#FF9800" stroke="#FF9800" stroke-width="2"/>
  <rect x="80" y="295" width="100" height="12" rx="6" fill="#333333"/>
  <rect x="80" y="315" width="70" height="8" rx="4" fill="#777777"/>
  <rect x="255" y="305" width="30" height="10" rx="5" fill="#0062FF"/>
  
  <!-- Record 3 -->
  <rect x="20" y="370" width="280" height="80" rx="10" fill="white" stroke="#E6EFFF" stroke-width="2"/>
  <circle cx="50" cy="400" r="20" fill="#4CAF50" opacity="0.1"/>
  <path d="M45 400 L50 405 L55 400 L50 395 Z" fill="#4CAF50" stroke="#4CAF50" stroke-width="2"/>
  <rect x="80" y="385" width="100" height="12" rx="6" fill="#333333"/>
  <rect x="80" y="405" width="70" height="8" rx="4" fill="#777777"/>
  <rect x="255" y="395" width="30" height="10" rx="5" fill="#0062FF"/>
  
  <!-- Record 4 -->
  <rect x="20" y="460" width="280" height="80" rx="10" fill="white" stroke="#E6EFFF" stroke-width="2"/>
  <circle cx="50" cy="490" r="20" fill="#9C27B0" opacity="0.1"/>
  <path d="M45 490 L50 495 L55 490 L50 485 Z" fill="#9C27B0" stroke="#9C27B0" stroke-width="2"/>
  <rect x="80" y="475" width="100" height="12" rx="6" fill="#333333"/>
  <rect x="80" y="495" width="70" height="8" rx="4" fill="#777777"/>
  <rect x="255" y="485" width="30" height="10" rx="5" fill="#0062FF"/>
  
  <!-- Bottom Navigation -->
  <rect x="0" y="600" width="320" height="50" rx="10" fill="white" stroke="#E6EFFF" stroke-width="1"/>
  <circle cx="60" cy="625" r="15" fill="#F5F5F5"/>
  <circle cx="160" cy="625" r="15" fill="#0062FF"/>
  <circle cx="260" cy="625" r="15" fill="#F5F5F5"/>
  
  <!-- Paw Print Decoration -->
  <circle cx="300" cy="150" r="5" fill="#FFD8C6" opacity="0.8"/>
  <circle cx="310" cy="155" r="5" fill="#FFD8C6" opacity="0.8"/>
  <circle cx="290" cy="155" r="5" fill="#FFD8C6" opacity="0.8"/>
  <circle cx="300" cy="165" r="7" fill="#FFD8C6" opacity="0.8"/>
  
  <!-- Blue Dot Decorations -->
  <circle cx="25" cy="555" r="10" fill="#E6EFFF" opacity="0.6"/>
  <circle cx="40" cy="565" r="5" fill="#E6EFFF" opacity="0.6"/>
  <circle cx="15" cy="570" r="7" fill="#E6EFFF" opacity="0.6"/>
</svg> 