<svg width="60" height="60" viewBox="0 0 60 60" fill="none" xmlns="http://www.w3.org/2000/svg">
  <!-- Background circle -->
  <circle cx="30" cy="30" r="30" fill="#E6F1FF"/>
  
  <!-- Computer monitor -->
  <rect x="15" y="15" width="30" height="22" rx="2" fill="#0066CC"/>
  <rect x="17" y="17" width="26" height="18" rx="1" fill="white"/>
  
  <!-- Monitor stand -->
  <path d="M25 37H35V43C35 44.1046 34.1046 45 33 45H27C25.8954 45 25 44.1046 25 43V37Z" fill="#0066CC"/>
  
  <!-- Log lines on screen -->
  <line x1="20" y1="21.5" x2="40" y2="21.5" stroke="#0066CC" stroke-linecap="round"/>
  <line x1="20" y1="25.5" x2="35" y2="25.5" stroke="#0066CC" stroke-linecap="round"/>
  <line x1="20" y1="29.5" x2="38" y2="29.5" stroke="#0066CC" stroke-linecap="round"/>
  <line x1="20" y1="33.5" x2="32" y2="33.5" stroke="#0066CC" stroke-linecap="round"/>
  
  <!-- Magnifying glass -->
  <circle cx="42" cy="36" r="6" fill="#4F94EF" opacity="0.9" stroke="white" stroke-width="1.5"/>
  <line x1="46.3536" y1="40.3536" x2="48.3536" y2="42.3536" stroke="white" stroke-width="2" stroke-linecap="round"/>
  
  <!-- Binary code in monitor corner -->
  <text x="30" y="22" font-family="monospace" font-size="3" fill="#0066CC">1010</text>
  <text x="30" y="26" font-family="monospace" font-size="3" fill="#0066CC">0101</text>
</svg> 