<?xml version="1.0" encoding="UTF-8"?>
<svg width="320" height="650" viewBox="0 0 320 650" fill="none" xmlns="http://www.w3.org/2000/svg">
  <!-- Background -->
  <rect width="320" height="650" fill="#F9FBFF"/>
  
  <!-- Header Bar -->
  <rect y="0" width="320" height="60" fill="#0062FF"/>
  <rect x="20" y="20" width="140" height="20" rx="5" fill="#4C8DFF"/>
  <circle cx="280" cy="30" r="15" fill="#4C8DFF"/>
  
  <!-- Main Content Box -->
  <rect x="20" y="80" width="280" height="160" rx="10" fill="white" stroke="#E6EFFF" stroke-width="2"/>
  
  <!-- Title for Chart -->
  <rect x="40" y="100" width="120" height="15" rx="5" fill="#0062FF"/>
  
  <!-- Bar Chart -->
  <rect x="40" y="140" width="20" height="80" rx="2" fill="#4285F4" opacity="0.7"/>
  <rect x="70" y="160" width="20" height="60" rx="2" fill="#4285F4" opacity="0.8"/>
  <rect x="100" y="120" width="20" height="100" rx="2" fill="#4285F4" opacity="0.9"/>
  <rect x="130" y="170" width="20" height="50" rx="2" fill="#4285F4" opacity="0.7"/>
  <rect x="160" y="130" width="20" height="90" rx="2" fill="#4285F4"/>
  <rect x="190" y="150" width="20" height="70" rx="2" fill="#4285F4" opacity="0.8"/>
  <rect x="220" y="100" width="20" height="120" rx="2" fill="#4285F4"/>
  
  <!-- Chart Bottom Line -->
  <line x1="40" y1="230" x2="240" y2="230" stroke="#E0E0E0" stroke-width="2"/>
  
  <!-- Data Cards Section -->
  <rect x="20" y="260" width="135" height="90" rx="10" fill="white" stroke="#E6EFFF" stroke-width="2"/>
  <rect x="165" y="260" width="135" height="90" rx="10" fill="white" stroke="#E6EFFF" stroke-width="2"/>
  
  <!-- Card 1 Content -->
  <rect x="40" y="275" width="80" height="10" rx="5" fill="#0062FF"/>
  <text x="40" y="315" font-family="Arial" font-size="24" font-weight="bold" fill="#333333">87%</text>
  <rect x="40" y="325" width="60" height="5" rx="2.5" fill="#4CAF50"/>
  
  <!-- Card 2 Content -->
  <rect x="185" y="275" width="80" height="10" rx="5" fill="#0062FF"/>
  <text x="185" y="315" font-family="Arial" font-size="24" font-weight="bold" fill="#333333">154</text>
  <rect x="185" y="325" width="60" height="5" rx="2.5" fill="#FF5722"/>
  
  <!-- Circular Progress Section -->
  <rect x="20" y="370" width="280" height="150" rx="10" fill="white" stroke="#E6EFFF" stroke-width="2"/>
  
  <!-- Section Title -->
  <rect x="40" y="390" width="100" height="15" rx="5" fill="#0062FF"/>
  
  <!-- Progress Circles -->
  <!-- Circle 1 -->
  <circle cx="80" cy="450" r="30" stroke="#E6EFFF" stroke-width="6"/>
  <path d="M80 420 A30 30 0 0 1 106 462" stroke="#0062FF" stroke-width="6" fill="none"/>
  <text x="70" y="455" font-family="Arial" font-size="14" font-weight="bold" fill="#333333">78</text>
  
  <!-- Circle 2 -->
  <circle cx="160" cy="450" r="30" stroke="#E6EFFF" stroke-width="6"/>
  <path d="M160 420 A30 30 0 1 1 130 450" stroke="#4CAF50" stroke-width="6" fill="none"/>
  <text x="150" y="455" font-family="Arial" font-size="14" font-weight="bold" fill="#333333">64</text>
  
  <!-- Circle 3 -->
  <circle cx="240" cy="450" r="30" stroke="#E6EFFF" stroke-width="6"/>
  <path d="M240 420 A30 30 0 0 1 268 436" stroke="#9C27B0" stroke-width="6" fill="none"/>
  <text x="230" y="455" font-family="Arial" font-size="14" font-weight="bold" fill="#333333">42</text>
  
  <!-- Pills under circles -->
  <rect x="60" y="490" width="40" height="10" rx="5" fill="#E6EFFF"/>
  <rect x="140" y="490" width="40" height="10" rx="5" fill="#E6EFFF"/>
  <rect x="220" y="490" width="40" height="10" rx="5" fill="#E6EFFF"/>
  
  <!-- List Section at Bottom -->
  <rect x="20" y="540" width="280" height="80" rx="10" fill="white" stroke="#E6EFFF" stroke-width="2"/>
  <rect x="40" y="555" width="240" height="2" rx="1" fill="#E6EFFF"/>
  <rect x="40" y="575" width="240" height="2" rx="1" fill="#E6EFFF"/>
  <rect x="40" y="595" width="240" height="2" rx="1" fill="#E6EFFF"/>
  
  <!-- Blue dotted decorations -->
  <circle cx="20" cy="320" r="10" fill="#E6EFFF" opacity="0.5"/>
  <circle cx="30" cy="330" r="5" fill="#E6EFFF" opacity="0.5"/>
  <circle cx="300" cy="520" r="15" fill="#E6EFFF" opacity="0.5"/>
  <circle cx="285" cy="530" r="8" fill="#E6EFFF" opacity="0.5"/>
</svg> 