<svg xmlns="http://www.w3.org/2000/svg" width="320" height="650" viewBox="0 0 320 650">
  <!-- Background -->
  <rect width="320" height="650" fill="#fff"/>
  
  <!-- Header -->
  <rect x="0" y="0" width="320" height="60" fill="#0066ff"/>
  <text x="20" y="38" fill="white" font-size="18" font-family="Arial, sans-serif" font-weight="600">Görev ve Hasta Takibi</text>
  <path d="M20,45 L40,45" stroke="white" stroke-width="2"/>
  <circle cx="290" cy="30" r="15" fill="rgba(255,255,255,0.2)"/>
  <path d="M290,25 L290,35 M285,30 L295,30" stroke="white" stroke-width="2"/>
  
  <!-- Main Content -->
  <text x="20" y="80" fill="#333" font-size="16" font-family="Arial, sans-serif" font-weight="600">Görevler</text>
  
  <!-- Tabs -->
  <rect x="20" y="95" width="125" height="35" rx="17.5" fill="#0066ff"/>
  <text x="55" y="118" fill="white" font-size="14" font-family="Arial, sans-serif" font-weight="bold">Aktif</text>
  
  <rect x="155" y="95" width="135" height="35" rx="17.5" fill="white" stroke="#ddd"/>
  <text x="177" y="118" fill="#666" font-size="14" font-family="Arial, sans-serif">Tamamlanan</text>
  
  <!-- Task 1 -->
  <rect x="20" y="145" width="280" height="100" rx="10" fill="white" stroke="#eee"/>
  <rect x="20" y="145" width="280" height="30" rx="10" fill="#e3f2fd"/>
  <text x="30" y="165" fill="#0066ff" font-size="14" font-family="Arial, sans-serif" font-weight="bold">Acil - Yeni Muayene</text>
  <rect x="230" y="150" width="60" height="20" rx="10" fill="#e91e63"/>
  <text x="240" y="165" fill="white" font-size="12" font-family="Arial, sans-serif" font-weight="bold">Gecikti</text>
  
  <line x1="20" y1="175" x2="300" y2="175" stroke="#eee"/>
  <text x="30" y="195" fill="#333" font-size="14" font-family="Arial, sans-serif">Hasta: Golden - Paşa</text>
  <text x="30" y="215" fill="#333" font-size="14" font-family="Arial, sans-serif">Sahip: Mehmet Yılmaz</text>
  <text x="30" y="235" fill="#999" font-size="12" font-family="Arial, sans-serif">Bugün, 14:30</text>
  
  <!-- Task 2 -->
  <rect x="20" y="255" width="280" height="100" rx="10" fill="white" stroke="#eee"/>
  <rect x="20" y="255" width="280" height="30" rx="10" fill="#e3f2fd"/>
  <text x="30" y="275" fill="#0066ff" font-size="14" font-family="Arial, sans-serif" font-weight="bold">Aşı Uygulaması</text>
  <rect x="230" y="260" width="60" height="20" rx="10" fill="#4caf50"/>
  <text x="243" y="275" fill="white" font-size="12" font-family="Arial, sans-serif" font-weight="bold">Bugün</text>
  
  <line x1="20" y1="285" x2="300" y2="285" stroke="#eee"/>
  <text x="30" y="305" fill="#333" font-size="14" font-family="Arial, sans-serif">Hasta: Tekir Kedi - Mia</text>
  <text x="30" y="325" fill="#333" font-size="14" font-family="Arial, sans-serif">Sahip: Ayşe Kaya</text>
  <text x="30" y="345" fill="#999" font-size="12" font-family="Arial, sans-serif">Bugün, 16:00</text>
  
  <!-- Task 3 -->
  <rect x="20" y="365" width="280" height="100" rx="10" fill="white" stroke="#eee"/>
  <rect x="20" y="365" width="280" height="30" rx="10" fill="#e3f2fd"/>
  <text x="30" y="385" fill="#0066ff" font-size="14" font-family="Arial, sans-serif" font-weight="bold">Kontrol Muayenesi</text>
  <rect x="230" y="370" width="60" height="20" rx="10" fill="#ff9800"/>
  <text x="245" y="385" fill="white" font-size="12" font-family="Arial, sans-serif" font-weight="bold">Yarın</text>
  
  <line x1="20" y1="395" x2="300" y2="395" stroke="#eee"/>
  <text x="30" y="415" fill="#333" font-size="14" font-family="Arial, sans-serif">Hasta: Pug - Luna</text>
  <text x="30" y="435" fill="#333" font-size="14" font-family="Arial, sans-serif">Sahip: Ali Demir</text>
  <text x="30" y="455" fill="#999" font-size="12" font-family="Arial, sans-serif">Yarın, 10:15</text>
  
  <!-- Add Button -->
  <circle cx="280" cy="495" r="25" fill="#0066ff"/>
  <path d="M280,485 L280,505 M270,495 L290,495" stroke="white" stroke-width="3"/>
  
  <!-- Bottom Navigation -->
  <rect x="0" y="530" width="320" height="120" fill="#f8f9fa" stroke="#eee" stroke-width="1"/>
  
  <rect x="0" y="530" width="320" height="1" fill="#eee"/>
  <text x="20" y="560" fill="#333" font-size="16" font-family="Arial, sans-serif" font-weight="600">Görev Durumu</text>
  
  <!-- Stats -->
  <rect x="20" y="575" width="80" height="60" rx="8" fill="white" stroke="#eee"/>
  <text x="60" y="600" fill="#0066ff" font-size="20" font-family="Arial, sans-serif" font-weight="bold" text-anchor="middle">12</text>
  <text x="60" y="620" fill="#666" font-size="12" font-family="Arial, sans-serif" text-anchor="middle">Aktif</text>
  
  <rect x="110" y="575" width="80" height="60" rx="8" fill="white" stroke="#eee"/>
  <text x="150" y="600" fill="#4caf50" font-size="20" font-family="Arial, sans-serif" font-weight="bold" text-anchor="middle">8</text>
  <text x="150" y="620" fill="#666" font-size="12" font-family="Arial, sans-serif" text-anchor="middle">Bugün</text>
  
  <rect x="200" y="575" width="80" height="60" rx="8" fill="white" stroke="#eee"/>
  <text x="240" y="600" fill="#ff9800" font-size="20" font-family="Arial, sans-serif" font-weight="bold" text-anchor="middle">4</text>
  <text x="240" y="620" fill="#666" font-size="12" font-family="Arial, sans-serif" text-anchor="middle">Yarın</text>
  
  <!-- Tab Bar -->
  <rect x="0" y="610" width="320" height="40" fill="white" stroke="#eee" stroke-width="1"/>
  <path d="M40,625 L50,635 L60,625" stroke="#0066ff" stroke-width="2" fill="none"/>
  <circle cx="120" cy="630" r="10" stroke="#666" stroke-width="2" fill="none"/>
  <rect x="155" y="625" width="10" height="10" stroke="#666" stroke-width="2" fill="none"/>
  <circle cx="200" cy="630" r="10" stroke="#666" stroke-width="2" fill="none"/>
  <path d="M260,625 L280,625 M270,625 L270,635" stroke="#666" stroke-width="2"/>
</svg> 