<svg xmlns="http://www.w3.org/2000/svg" width="320" height="650" viewBox="0 0 320 650">
  <!-- Background -->
  <rect width="320" height="650" fill="#fff"/>
  
  <!-- Header -->
  <rect x="0" y="0" width="320" height="60" fill="#0066ff"/>
  <text x="20" y="38" fill="white" font-size="18" font-family="Arial, sans-serif" font-weight="600">Yeni Tedavi Kaydı</text>
  <path d="M20,45 L40,45" stroke="white" stroke-width="2"/>
  <circle cx="290" cy="30" r="15" fill="rgba(255,255,255,0.2)"/>
  <path d="M290,25 L290,35 M285,30 L295,30" stroke="white" stroke-width="2"/>
  
  <!-- Navigation Tabs -->
  <rect x="10" y="70" width="100" height="40" rx="6" fill="#e6f0ff"/>
  <text x="35" y="95" fill="#0066ff" font-size="14" font-family="Arial, sans-serif" font-weight="600">Temel Bilgiler</text>
  <circle cx="25" cy="90" r="8" fill="#0066ff"/>
  <text x="23" y="95" fill="white" font-size="14" font-family="Arial, sans-serif" font-weight="600">1</text>
  
  <rect x="115" y="70" width="95" height="40" rx="6" fill="#f0f0f0"/>
  <text x="137" y="95" fill="#666" font-size="14" font-family="Arial, sans-serif">Fiziksel Muayene</text>
  <circle cx="127" cy="90" r="8" fill="#ddd"/>
  <text x="125" y="95" fill="#666" font-size="14" font-family="Arial, sans-serif" font-weight="500">2</text>
  
  <rect x="215" y="70" width="95" height="40" rx="6" fill="#f0f0f0"/>
  <text x="245" y="95" fill="#666" font-size="14" font-family="Arial, sans-serif">İlaçlar</text>
  <circle cx="235" cy="90" r="8" fill="#ddd"/>
  <text x="233" y="95" fill="#666" font-size="14" font-family="Arial, sans-serif" font-weight="500">3</text>
  
  <!-- Main Form -->
  <rect x="10" y="125" width="300" height="140" rx="8" fill="#f9f9f9" stroke="#eee" stroke-width="1"/>
  <text x="20" y="150" fill="#333" font-size="16" font-family="Arial, sans-serif" font-weight="600">Hasta ve Veteriner Bilgileri</text>
  
  <text x="20" y="180" fill="#666" font-size="14" font-family="Arial, sans-serif">Hasta</text>
  <rect x="20" y="190" width="280" height="40" rx="6" fill="white" stroke="#ddd"/>
  <text x="30" y="215" fill="#333" font-size="14" font-family="Arial, sans-serif">Hasta seçin</text>
  <path d="M290,210 L280,200 L270,210" stroke="#999" stroke-width="1.5" fill="none"/>
  
  <text x="20" y="250" fill="#666" font-size="14" font-family="Arial, sans-serif">Veteriner Hekim</text>
  <rect x="20" y="260" width="280" height="40" rx="6" fill="white" stroke="#ddd"/>
  <text x="30" y="285" fill="#333" font-size="14" font-family="Arial, sans-serif">Veteriner hekim seçin</text>
  <path d="M290,280 L280,270 L270,280" stroke="#999" stroke-width="1.5" fill="none"/>
  
  <!-- Tedavi Bilgileri -->
  <rect x="10" y="280" width="300" height="250" rx="8" fill="#f9f9f9" stroke="#eee" stroke-width="1"/>
  <text x="20" y="305" fill="#333" font-size="16" font-family="Arial, sans-serif" font-weight="600">Tedavi Bilgileri</text>
  
  <text x="20" y="335" fill="#666" font-size="14" font-family="Arial, sans-serif">Tedavi Tarihi</text>
  <rect x="20" y="345" width="280" height="40" rx="6" fill="white" stroke="#ddd"/>
  <text x="30" y="370" fill="#333" font-size="14" font-family="Arial, sans-serif">2023-04-05</text>
  <rect x="250" y="345" width="40" height="40" rx="6" fill="#f5f5f5" stroke="#ddd"/>
  <rect x="262" y="363" width="16" height="2" fill="#666"/>
  <rect x="262" y="367" width="16" height="2" fill="#666"/>
  
  <text x="20" y="405" fill="#666" font-size="14" font-family="Arial, sans-serif">Tedavi Tipi</text>
  <rect x="20" y="415" width="80" height="35" rx="17.5" fill="#0066ff" stroke="none"/>
  <text x="42" y="437" fill="white" font-size="14" font-family="Arial, sans-serif">Muayene</text>
  
  <rect x="110" y="415" width="60" height="35" rx="17.5" fill="white" stroke="#ddd"/>
  <text x="125" y="437" fill="#666" font-size="14" font-family="Arial, sans-serif">Aşı</text>
  
  <rect x="180" y="415" width="120" height="35" rx="17.5" fill="white" stroke="#ddd"/>
  <text x="202" y="437" fill="#666" font-size="14" font-family="Arial, sans-serif">Operasyon</text>
  
  <text x="20" y="470" fill="#666" font-size="14" font-family="Arial, sans-serif">Semptomlar</text>
  <rect x="20" y="480" width="280" height="40" rx="6" fill="white" stroke="#ddd"/>
  <text x="30" y="505" fill="#999" font-size="14" font-family="Arial, sans-serif">Semptomları girin</text>
  
  <!-- Bottom Navigation -->
  <rect x="0" y="550" width="320" height="100" fill="#f5f5f5" stroke="#eee" stroke-width="1"/>
  <rect x="20" y="575" width="130" height="50" rx="8" fill="white" stroke="#ddd"/>
  <text x="57" y="605" fill="#666" font-size="16" font-family="Arial, sans-serif">İptal</text>
  
  <rect x="170" y="575" width="130" height="50" rx="8" fill="#0066ff"/>
  <text x="207" y="605" fill="white" font-size="16" font-family="Arial, sans-serif">Kaydet</text>
  
  <!-- Bottom Tab Bar -->
  <rect x="0" y="610" width="320" height="40" fill="white" stroke="#eee" stroke-width="1"/>
  <circle cx="40" cy="630" r="8" fill="white" stroke="#0066ff" stroke-width="2"/>
  <circle cx="110" cy="630" r="8" fill="#0066ff"/>
  <circle cx="180" cy="630" r="8" fill="white" stroke="#0066ff" stroke-width="2"/>
  <circle cx="250" cy="630" r="8" fill="white" stroke="#0066ff" stroke-width="2"/>
  <text x="36" y="650" fill="#0066ff" font-size="10" font-family="Arial, sans-serif">Ana Sayfa</text>
  <text x="98" y="650" fill="#0066ff" font-size="10" font-family="Arial, sans-serif">Görevler</text>
  <text x="167" y="650" fill="#0066ff" font-size="10" font-family="Arial, sans-serif">Takvim</text>
  <text x="245" y="650" fill="#0066ff" font-size="10" font-family="Arial, sans-serif">Profil</text>
</svg> 