<svg width="600" height="400" viewBox="0 0 600 400" fill="none" xmlns="http://www.w3.org/2000/svg">
  <rect width="600" height="400" fill="#E6EEFF"/>
  <circle cx="300" cy="200" r="100" fill="#BFD1FF"/>
  <path d="M300 120C282.33 120 265.73 125.82 251.11 136.85C236.49 147.88 225.07 163.68 218.33 182.04C211.59 200.4 209.9 220.44 213.45 239.8C217.01 259.16 225.64 276.94 238.43 290.71C251.23 304.47 267.55 313.64 285.21 317.3C302.87 320.97 321.1 319.25 337.89 312.33C354.68 305.41 369.16 293.61 379.24 278.39C389.32 263.17 394.57 245.7 394.57 227.86" stroke="#6B7AFF" stroke-width="15" stroke-linecap="round"/>
  <path d="M295.714 182.857C295.714 182.857 264.286 190 250 230C250 230 271.429 270 302.857 270C334.286 270 352.857 227.143 352.857 227.143C352.857 227.143 338.571 187.143 295.714 182.857Z" fill="#6B7AFF"/>
  <circle cx="270" cy="185.714" r="15.7143" fill="white"/>
  <circle cx="330" cy="185.714" r="15.7143" fill="white"/>
  <circle cx="270" cy="185.714" r="7.85714" fill="#333333"/>
  <circle cx="330" cy="185.714" r="7.85714" fill="#333333"/>
  <path d="M280 240C280 240 290 250 305 250C320 250 325 240 325 240" stroke="white" stroke-width="5" stroke-linecap="round"/>
</svg> 